<?xml version="1.0" encoding="UTF-8" standalone="no"?>
<svg width="320px" height="180px" viewBox="0 0 320 180" version="1.1" xmlns="http://www.w3.org/2000/svg" xmlns:xlink="http://www.w3.org/1999/xlink">
    <!-- Generator: Sketch 46.2 (44496) - http://www.bohemiancoding.com/sketch -->
    <title>agenda-logo</title>
    <desc>Created with Sketch.</desc>
    <defs></defs>
    <g id="Page-1" stroke="none" stroke-width="1" fill="none" fill-rule="evenodd">
        <g id="agenda-logo" fill="#B0AFB2">
            <g transform="translate(104.000000, 74.000000)" id="AGENDA-Copy">
                <path d="M9.13731826,9.54442649 L9.04684976,9.54442649 L6.78513732,21.2148627 L11.3990307,21.2148627 L9.13731826,9.54442649 Z M7.19224556,0.271405493 L11.0371567,0.271405493 L18.2294023,32.4781906 L13.6155089,32.4781906 L12.2584814,25.5573506 L5.97092084,25.5573506 L4.61389338,32.4781906 L0,32.4781906 L7.19224556,0.271405493 Z M20.2197092,7.87075929 C20.2197092,6.57403767 20.4458782,5.42811483 20.8982229,4.43295638 C21.3505677,3.43779793 21.946146,2.61605063 22.6849758,1.96768982 C23.4238055,1.31932901 24.2530918,0.82929622 25.1728595,0.497576737 C26.0926271,0.165857254 27.0199199,0 27.9547658,0 C28.8896116,0 29.8169044,0.165857254 30.7366721,0.497576737 C31.6564397,0.82929622 32.485726,1.31932901 33.2245557,1.96768982 C33.9633855,2.61605063 34.5589638,3.43779793 35.0113086,4.43295638 C35.4636533,5.42811483 35.6898223,6.57403767 35.6898223,7.87075929 L35.6898223,9.49919225 L31.0759289,9.49919225 L31.0759289,7.87075929 C31.0759289,6.75497557 30.7668313,5.93322827 30.1486268,5.40549273 C29.5304223,4.87775719 28.7991426,4.61389338 27.9547658,4.61389338 C27.1103889,4.61389338 26.3791092,4.87775719 25.7609047,5.40549273 C25.1427002,5.93322827 24.8336026,6.75497557 24.8336026,7.87075929 L24.8336026,24.8788368 C24.8336026,25.9946205 25.1427002,26.8163679 25.7609047,27.3441034 C26.3791092,27.8718389 27.1103889,28.1357027 27.9547658,28.1357027 C28.7991426,28.1357027 29.5304223,27.8718389 30.1486268,27.3441034 C30.7668313,26.8163679 31.0759289,25.9946205 31.0759289,24.8788368 L31.0759289,18.8174475 L27.4119548,18.8174475 L27.4119548,14.7463651 L35.6898223,14.7463651 L35.6898223,24.8788368 C35.6898223,26.2057148 35.4636533,27.3591766 35.0113086,28.3392569 C34.5589638,29.3193372 33.9633855,30.1335455 33.2245557,30.7819063 C32.485726,31.4302671 31.6564397,31.9202999 30.7366721,32.2520194 C29.8169044,32.5837389 28.8896116,32.7495961 27.9547658,32.7495961 C27.0199199,32.7495961 26.0926271,32.5837389 25.1728595,32.2520194 C24.2530918,31.9202999 23.4238055,31.4302671 22.6849758,30.7819063 C21.946146,30.1335455 21.3505677,29.3193372 20.8982229,28.3392569 C20.4458782,27.3591766 20.2197092,26.2057148 20.2197092,24.8788368 L20.2197092,7.87075929 Z M39.7609047,0.271405493 L53.5121163,0.271405493 L53.5121163,4.61389338 L44.3747981,4.61389338 L44.3747981,14.0678514 L52.3360258,14.0678514 L52.3360258,18.4103393 L44.3747981,18.4103393 L44.3747981,27.8642973 L53.5121163,27.8642973 L53.5121163,32.4781906 L39.7609047,32.4781906 L39.7609047,0.271405493 Z M56.3166397,0.271405493 L60.7495961,0.271405493 L67.7156704,19.6768982 L67.8061389,19.6768982 L67.8061389,0.271405493 L72.4200323,0.271405493 L72.4200323,32.4781906 L68.0775444,32.4781906 L61.0210016,13.1179321 L60.9305331,13.1179321 L60.9305331,32.4781906 L56.3166397,32.4781906 L56.3166397,0.271405493 Z M76.5815832,0.271405493 L83.4119548,0.271405493 C86.0355543,0.271405493 88.0409193,1.0026852 89.4281099,2.46526656 C90.8153004,3.92784792 91.5088853,5.97090772 91.5088853,8.59450727 L91.5088853,23.6575121 C91.5088853,26.6731438 90.7776056,28.8971388 89.3150242,30.3295638 C87.8524429,31.7619889 85.7490713,32.4781906 83.0048465,32.4781906 L76.5815832,32.4781906 L76.5815832,0.271405493 Z M81.1954766,28.1357027 L83.3214863,28.1357027 C84.6182079,28.1357027 85.5379617,27.8115272 86.0807754,27.1631664 C86.6235891,26.5148056 86.8949919,25.4970452 86.8949919,24.1098546 L86.8949919,8.59450727 C86.8949919,7.32794197 86.6386671,6.34787638 86.1260097,5.6542811 C85.6133523,4.96068582 84.6785205,4.61389338 83.3214863,4.61389338 L81.1954766,4.61389338 L81.1954766,28.1357027 Z M102.907916,9.54442649 L102.817447,9.54442649 L100.555735,21.2148627 L105.169628,21.2148627 L102.907916,9.54442649 Z M100.962843,0.271405493 L104.807754,0.271405493 L112,32.4781906 L107.386107,32.4781906 L106.029079,25.5573506 L99.7415186,25.5573506 L98.3844911,32.4781906 L93.7705977,32.4781906 L100.962843,0.271405493 Z"></path>
            </g>
        </g>
    </g>
</svg>