<?xml version="1.0" encoding="UTF-8" standalone="no"?>
<svg width="320px" height="180px" viewBox="0 0 320 180" version="1.1" xmlns="http://www.w3.org/2000/svg" xmlns:xlink="http://www.w3.org/1999/xlink">
    <!-- Generator: Sketch 46.2 (44496) - http://www.bohemiancoding.com/sketch -->
    <title>flux-logo</title>
    <desc>Created with Sketch.</desc>
    <defs></defs>
    <g id="Page-1" stroke="none" stroke-width="1" fill="none" fill-rule="evenodd">
        <g id="flux-logo" fill-rule="nonzero" fill="#B0AFB2">
            <g transform="translate(88.000000, 77.000000)">
                <path d="M4.71061379,11.1988498 C6.10772221,10.3881935 6.5855182,8.59010247 5.7789237,7.18574559 C4.97347005,5.78115913 3.18778161,5.29834688 1.79021685,6.11038061 C0.395390192,6.92195516 -0.0833185172,8.71866873 0.723275996,10.1234848 C1.52872964,11.5285304 3.31441809,12.0099652 4.71061379,11.1988498" id="path26" transform="translate(3.251175, 8.654461) scale(-1, 1) rotate(-180.000000) translate(-3.251175, -8.654461) "></path>
                <path d="M22.2180499,6.10840116 C20.8223105,5.2982041 19.0370784,5.77963885 18.2302557,7.18376615 C17.4236612,8.58950052 17.9019136,10.3862141 19.2999347,11.1968703 C20.6947614,12.0093632 22.4809062,11.5286172 23.2884134,10.1215053 C24.0943234,8.71668929 23.6151583,6.91997572 22.2180499,6.10840116" id="path30" transform="translate(20.758996, 8.653471) scale(-1, 1) rotate(-180.000000) translate(-20.758996, -8.653471) "></path>
                <path d="M12.0046011,21.7632424 C10.3927811,21.7632424 9.08557319,20.4479636 9.08557319,18.8266511 C9.08557319,18.2908053 9.22818186,17.7882489 9.47689135,17.3559449 C10.7154189,15.1937358 10.8048631,12.4421881 9.4746096,10.1240924 C8.14526884,7.80760379 5.73347137,6.51000281 3.2511682,6.50862535 C2.75557463,6.50862535 2.25199497,6.38074781 1.79154017,6.11443197 C0.395344458,5.30285742 -0.0833642515,3.50568468 0.723458435,2.10109822 C1.52868391,0.695363848 3.31437235,0.213469932 4.7119371,1.02550365 C5.17193556,1.29411532 5.53199387,1.6681054 5.78024701,2.10109822 C7.02174085,4.26170024 9.34683227,5.71495822 12.0046011,5.71495822 C14.665108,5.71495822 16.987005,4.26170024 18.2294115,2.10109822 C18.478121,1.66718707 18.837723,1.29411532 19.3000032,1.02550365 C20.6948299,0.213469932 22.4809746,0.695363848 23.2875691,2.10109822 C24.0941637,3.50568468 23.6152268,5.30285742 22.2181184,6.11443197 C21.7581199,6.38120697 21.2545403,6.50862535 20.7584904,6.50862535 C18.2775563,6.51000281 15.8639334,7.80760379 14.535049,10.1254699 C13.2047955,12.4421881 13.2951523,15.1937358 14.535049,17.3559449 C14.7810204,17.7882489 14.9249981,18.2908053 14.9249981,18.8266511 C14.9249981,20.4479636 13.6164211,21.7632424 12.0046011,21.7632424" id="path34" transform="translate(12.005389, 11.197129) scale(-1, 1) rotate(-180.000000) translate(-12.005389, -11.197129) "></path>
                <path d="M14.9249526,23.9098886 C14.9249526,22.2883465 13.6166038,20.9719198 12.0045557,20.9719198 C10.3927357,20.9719198 9.08461509,22.2871986 9.08461509,23.9098886 C9.08461509,25.5321193 10.3927357,26.8478573 12.0045557,26.8478573 C13.6166038,26.8478573 14.9249526,25.5321193 14.9249526,23.9098886" id="path38" transform="translate(12.004784, 23.909889) scale(-1, 1) rotate(-180.000000) translate(-12.004784, -23.909889) "></path>
                <path d="M35.6910081,19.4212961 C35.6910081,21.3199443 36.7276019,22.3620198 38.6136868,22.3620198 L49.4001486,22.3620198 L49.4001486,19.1007988 L39.1973555,19.1007988 L39.1973555,15.3579133 L46.8224688,15.3579133 L46.8224688,12.2567113 L39.1973555,12.2567113 L39.1973555,5.11990604 L35.6910081,5.11990604 L35.6910081,19.4212961 Z" id="path42" transform="translate(42.545578, 13.740963) scale(-1, 1) rotate(-180.000000) translate(-42.545578, -13.740963) "></path>
                <path d="M54.1824438,22.3621114 L57.6883348,22.3621114 L57.6883348,8.38167785 L66.1905483,8.38167785 L66.1905483,5.11999759 L57.1046662,5.11999759 C55.2185812,5.11999759 54.1824438,6.16299143 54.1824438,8.06072135 L54.1824438,22.3621114 Z" id="path46" transform="translate(60.186496, 13.741054) scale(-1, 1) rotate(-180.000000) translate(-60.186496, -13.741054) "></path>
                <path d="M70.4420432,22.3621114 L73.9483905,22.3621114 L73.9483905,8.38167785 L82.3445032,8.38167785 L82.3445032,22.3621114 L85.8517633,22.3621114 L85.8517633,5.11999759 L73.3647219,5.11999759 C71.4781806,5.11999759 70.4420432,6.16299143 70.4420432,8.06072135 L70.4420432,22.3621114 Z" id="path50" transform="translate(78.146903, 13.741054) scale(-1, 1) rotate(-180.000000) translate(-78.146903, -13.741054) "></path>
                <path d="M91.164882,12.4446477 C91.164882,14.156186 92.0152859,15.1445392 93.5559157,15.3314195 L91.5890572,22.361928 L95.2293426,22.361928 L97.088503,15.3853714 L100.649156,15.3853714 L102.509001,22.361928 L106.148602,22.361928 L104.18334,15.3314195 C105.724426,15.1445392 106.574602,14.156186 106.574602,12.4446477 L106.574602,5.12004379 L103.067342,5.12004379 L103.067342,12.2846285 L94.6721421,12.2846285 L94.6721421,5.12004379 L91.164882,5.12004379 L91.164882,12.4446477 Z" id="path54" transform="translate(98.869742, 13.740986) scale(-1, 1) rotate(-180.000000) translate(-98.869742, -13.740986) "></path>
                <polygon id="path56" transform="translate(120.123222, 14.610346) scale(-1, 1) rotate(-180.000000) translate(-120.123222, -14.610346) " points="118.369592 22.3618589 121.876852 22.3618589 121.876852 6.85883345 118.369592 6.85883345"></polygon>
                <path d="M139.624213,19.1013266 L131.229014,19.1013266 L131.229014,10.1207433 L139.624213,10.1207433 L139.624213,19.1013266 Z M127.721753,19.4213647 C127.721753,21.320013 128.757891,22.3620885 130.644204,22.3620885 L140.208795,22.3620885 C142.094879,22.3620885 143.131474,21.320013 143.131474,19.4213647 L143.131474,9.79955721 C143.131474,7.90182729 142.094879,6.85883345 140.208795,6.85883345 L130.644204,6.85883345 C128.757891,6.85883345 127.721753,7.90182729 127.721753,9.79955721 L127.721753,19.4213647 Z" id="path58" transform="translate(135.426613, 14.610461) scale(-1, 1) rotate(-180.000000) translate(-135.426613, -14.610461) "></path>
                <path d="M114.391359,20.6849873 C114.391359,19.6190352 113.532056,18.7541974 112.472417,18.7541974 C111.413006,18.7541974 110.554388,19.6190352 110.554388,20.6849873 C110.554388,21.7509394 111.413006,22.6148587 112.472417,22.6148587 C113.532056,22.6148587 114.391359,21.7509394 114.391359,20.6849873" id="path62" transform="translate(112.472873, 20.684528) scale(-1, 1) rotate(-180.000000) translate(-112.472873, -20.684528) "></path>
            </g>
        </g>
    </g>
</svg>