<?xml version="1.0" encoding="UTF-8" standalone="no"?>
<svg width="320px" height="180px" viewBox="0 0 320 180" version="1.1" xmlns="http://www.w3.org/2000/svg" xmlns:xlink="http://www.w3.org/1999/xlink">
    <!-- Generator: Sketch 46.2 (44496) - http://www.bohemiancoding.com/sketch -->
    <title>fsb-logo</title>
    <desc>Created with Sketch.</desc>
    <defs></defs>
    <g id="Page-1" stroke="none" stroke-width="1" fill="none" fill-rule="evenodd">
        <g id="fsb-logo" fill-rule="nonzero">
            <g transform="translate(124.000000, 57.000000)" id="Shape">
                <path d="M64.0073394,50.2678899 C64.0733945,50.2678899 64.1394495,50.1357798 64.1394495,50.1357798 L64.0733945,50.1357798 C64.0733945,50.1357798 64.0073394,50.2018349 63.6770642,50.2678899 L63.6770642,50.333945 L63.8091743,50.333945 C63.8091743,50.333945 63.8752294,50.2678899 64.0073394,50.2678899 Z" fill="#0071BC"></path>
                <path d="M64.0733945,50.5981651 C64.0733945,50.5981651 64.0073394,50.7302752 64.0073394,50.7302752 L64.1394495,50.7302752 L64.2715596,50.5981651 L64.1394495,50.5321101 C64.1394495,50.5321101 64.0733945,50.5981651 64.0733945,50.5981651 Z" fill="#0071BC"></path>
                <path d="M63.2807339,50.9284404 L63.2146789,51.0605505 C63.2146789,51.0605505 63.346789,51.1266055 63.2807339,50.9284404 Z" fill="#0071BC"></path>
                <path d="M63.7431193,50.7963303 C63.8091743,50.7302752 63.8752294,50.7302752 63.8752294,50.7302752 L63.6770642,50.7302752 C63.6770642,50.7302752 63.6110092,50.7963303 63.5449541,50.7963303 C63.4788991,50.8623853 63.412844,50.9284404 63.412844,50.9284404 L63.6110092,50.9284404 C63.5449541,50.9284404 63.6110092,50.8623853 63.7431193,50.7963303 Z" fill="#0071BC"></path>
                <path d="M60.7045872,52.3155963 L60.8366972,52.3155963 C60.8366972,52.3155963 61.2330275,51.9192661 61.8275229,51.7211009 L61.8275229,51.6550459 L61.6954128,51.6550459 C61.6954128,51.6550459 61.2990826,51.9853211 60.7045872,52.2495413 L60.7045872,52.3155963 Z" fill="#0071BC"></path>
                <path d="M66.0550459,50.0036697 L65.8568807,50.0036697 C65.9889908,50.1357798 66.0550459,50.0036697 66.0550459,50.0036697 Z" fill="#0071BC"></path>
                <path d="M70.9431193,49.8055046 C70.6788991,49.5412844 69.5559633,48.4844037 65.7908257,49.5412844 L65.7908257,49.6073394 L65.9229358,49.6073394 C65.9229358,49.6073394 66.0550459,49.5412844 66.3853211,49.5412844 C66.6495413,49.5412844 66.9798165,49.4752294 66.9798165,49.4752294 C66.9798165,49.4752294 67.3761468,49.4091743 68.2348624,49.4091743 C69.093578,49.4091743 69.093578,49.4091743 69.093578,49.4091743 L69.093578,49.5412844 L68.9614679,49.5412844 C68.9614679,49.5412844 68.8293578,49.4752294 68.4330275,49.4752294 L68.4330275,49.6733945 C68.4330275,49.6733945 68.0366972,49.6733945 67.706422,49.7394495 C67.3761468,49.8055046 67.1119266,49.8715596 66.9137615,49.8715596 L66.9137615,50.0697248 C66.9137615,50.0697248 66.3853211,50.0697248 65.6587156,50.333945 C64.9321101,50.5981651 64.9981651,50.5981651 64.5357798,50.7302752 C64.0733945,50.7963303 63.7431193,51.0605505 63.7431193,51.0605505 C63.7431193,51.0605505 63.2807339,51.3247706 62.9504587,51.3908257 L62.9504587,51.3247706 C62.9504587,51.3247706 63.0825688,51.2587156 63.1486239,51.1926606 C63.1486239,51.1926606 63.0165138,51.1926606 62.7522936,51.3247706 L62.6201835,51.3908257 L62.6201835,51.4568807 L62.7522936,51.4568807 C62.7522936,51.4568807 62.8183486,51.3908257 62.9504587,51.3908257 L62.9504587,51.4568807 L62.8844037,51.4568807 C62.8844037,51.4568807 62.6201835,51.7211009 62.4220183,51.5889908 C62.4220183,51.5889908 62.5541284,51.5889908 62.5541284,51.5229358 L62.6201835,51.4568807 L62.5541284,51.4568807 C62.5541284,51.4568807 62.4880734,51.5229358 62.2899083,51.5889908 C62.0917431,51.6550459 62.0917431,51.787156 62.0917431,51.787156 L62.2238532,51.7211009 C62.2238532,51.7211009 62.2899083,51.7211009 62.3559633,51.787156 L62.2899083,51.787156 L62.2899083,51.853211 C62.2899083,51.853211 61.2990826,52.2495413 60.7706422,52.7119266 L60.6385321,52.8440367 C60.6385321,52.8440367 60.506422,52.9761468 60.3082569,52.9761468 L60.3082569,52.9100917 L60.3743119,52.9100917 C60.3743119,52.9100917 60.440367,52.7119266 60.7045872,52.6458716 L60.7045872,52.5798165 L60.5724771,52.5798165 C60.5724771,52.5798165 60.440367,52.7779817 59.5816514,53.1743119 L59.5816514,53.0422018 C59.5816514,53.0422018 60.440367,52.5798165 60.7045872,52.1174312 L60.5724771,52.1174312 C60.5724771,52.1174312 60.440367,52.2495413 60.1761468,52.3816514 C59.9119266,52.5137615 59.6477064,52.6458716 59.4495413,52.9100917 C59.2513761,53.1743119 58.3926606,54.1651376 58.3926606,54.1651376 C58.3926606,54.1651376 57.7981651,54.5614679 57.4678899,54.8256881 L57.4678899,63.412844 C57.4678899,63.412844 57.7981651,63.4788991 58.4587156,63.4788991 C58.4587156,63.4788991 58.5908257,63.2807339 59.3174312,63.2146789 C60.0440367,63.2146789 60.3082569,63.0825688 61.4311927,62.6201835 C62.5541284,62.1577982 67.2440367,59.5816514 70.0844037,54.9577982 C70.0844037,54.9577982 70.2165138,54.8256881 70.2165138,54.6275229 C70.2165138,54.4293578 70.2825688,54.3633028 70.3486239,54.2311927 C70.3486239,54.2311927 71.7357798,52.1834862 71.5376147,50.2678899 C71.6036697,50.333945 71.2073394,50.0697248 70.9431193,49.8055046 Z" fill="#B0AFB2"></path>
                <path d="M56.2788991,50.333945 C56.2788991,50.333945 56.4770642,48.6165138 56.4110092,47.7577982 C56.4110092,47.7577982 56.4110092,47.559633 56.2788991,47.6256881 C56.2788991,47.6256881 56.212844,47.559633 56.212844,47.493578 C56.212844,47.493578 56.2788991,47.493578 56.3449541,47.493578 C56.3449541,47.493578 56.3449541,47.4275229 56.212844,47.4275229 C56.212844,47.4275229 56.146789,47.493578 55.9486239,47.559633 L55.9486239,47.4275229 C55.9486239,47.4275229 56.3449541,47.2954128 56.4770642,46.8990826 L56.2788991,46.8990826 C56.2788991,46.8990826 56.0807339,47.2293578 55.3541284,47.6917431 C54.6275229,48.1541284 54.4954128,48.4844037 54.4293578,48.946789 C54.4293578,48.946789 55.2880734,49.8715596 55.2880734,50.7302752 C55.2880734,50.7302752 55.2880734,51.2587156 55.4201835,51.4568807 C55.4201835,51.4568807 55.6183486,50.9284404 56.0807339,50.8623853 C56.0807339,50.8623853 56.146789,50.6642202 56.212844,50.5981651 C56.3449541,50.5321101 56.3449541,50.4 56.3449541,50.4 L56.2788991,50.333945 Z" fill="#B0AFB2"></path>
                <path d="M58.3266055,48.8146789 C58.5908257,48.5504587 58.7889908,48.4183486 58.9211009,48.4183486 C58.987156,48.4183486 59.1192661,48.3522936 59.2513761,48.1541284 L59.6477064,47.6917431 L59.6477064,47.493578 C59.6477064,47.493578 59.7798165,47.3614679 59.8458716,47.3614679 C59.9119266,47.2954128 59.9779817,47.2293578 60.1100917,47.0972477 C60.2422018,46.9651376 60.5724771,46.5027523 60.7706422,46.2385321 C60.9688073,45.9743119 61.4311927,45.2477064 61.4311927,45.1816514 L61.2990826,45.1816514 C61.2990826,45.1816514 61.0348624,45.3798165 60.3082569,45.5119266 C59.5816514,45.6440367 57.6,46.8330275 57.6,46.8330275 L57.6,49.1449541 C57.6,49.1449541 57.7321101,49.1449541 57.7981651,49.1449541 C57.7981651,49.2110092 58.0623853,49.0788991 58.3266055,48.8146789 Z" fill="#B0AFB2"></path>
                <path d="M61.1669725,51.787156 L61.1669725,51.7211009 L61.0348624,51.7211009 L60.9688073,51.787156 L60.8366972,51.853211 L60.8366972,51.9192661 L60.9688073,51.9192661 C61.0348624,51.787156 61.1669725,51.787156 61.1669725,51.787156 Z" fill="#0071BC"></path>
                <polygon fill="#0071BC" points="65.2623853 49.8055046 65.1963303 49.7394495 65.1302752 49.7394495 65.1963303 49.8055046"></polygon>
                <path d="M70.0844037,59.7137615 C70.0844037,59.7137615 70.0183486,59.9779817 70.0183486,60.1100917 L69.8862385,60.1100917 C69.8862385,60.1100917 69.8201835,60.2422018 69.8201835,60.3082569 C69.8201835,60.3743119 69.7541284,60.440367 69.7541284,60.440367 L69.6220183,60.440367 C69.6220183,60.440367 69.4899083,60.5724771 69.4238532,60.7706422 C69.3577982,60.9688073 69.159633,61.2330275 69.159633,61.2330275 L69.0275229,61.2330275 C69.0275229,61.2330275 68.4330275,62.0256881 67.706422,62.6862385 L67.5743119,62.6862385 L67.5743119,62.8183486 C67.5743119,62.8183486 67.5082569,62.8844037 67.4422018,62.8844037 C67.3761468,62.8844037 67.2440367,63.0165138 66.7816514,63.6770642 C66.3192661,64.3376147 65.5266055,64.9321101 65.1302752,64.9981651 C65.1302752,64.9981651 64.9321101,64.9981651 64.8,65.1302752 L64.733945,65.3284404 L64.6018349,65.3284404 C64.6018349,65.3284404 64.1394495,65.9889908 63.2146789,66.253211 C62.6201835,66.4513761 62.3559633,66.5174312 62.0917431,66.6495413 L71.8018349,66.6495413 L71.8018349,57.4018349 C71.5376147,57.9302752 71.2073394,58.5247706 70.6788991,59.3174312 L70.0844037,59.7137615 Z" fill="#B0AFB2"></path>
                <path d="M40.8880734,60.2422018 L40.8220183,60.3743119 C40.8220183,60.3743119 40.9541284,60.440367 40.8880734,60.2422018 Z" fill="#0071BC"></path>
                <path d="M34.3486239,53.9009174 C34.3486239,53.9009174 33.4899083,54.0330275 32.6311927,54.4293578 C31.706422,54.8256881 30.3192661,55.2880734 29.9889908,55.4201835 C29.6587156,55.4862385 29.0642202,55.6844037 29.0642202,55.6844037 C29.0642202,55.6844037 28.0073394,56.0807339 27.4788991,56.212844 C26.9504587,56.3449541 26.5541284,56.5431193 26.5541284,56.5431193 L26.5541284,56.6091743 L26.7522936,56.6091743 C27.412844,56.212844 27.2146789,56.3449541 28.2055046,56.146789 C29.1963303,55.8825688 28.733945,56.0146789 29.3944954,55.7504587 C30.0550459,55.4862385 30.6495413,55.2880734 30.6495413,55.2880734 C31.9706422,54.8917431 32.8293578,54.4954128 32.8293578,54.4954128 L33.3577982,54.4293578 L33.8201835,54.2311927 C34.6788991,53.7688073 35.4715596,53.5706422 35.4715596,53.5706422 L35.4715596,53.5045872 L35.2073394,53.5045872 C35.0752294,53.7027523 34.3486239,53.9009174 34.3486239,53.9009174 Z" fill="#0071BC"></path>
                <path d="M54.8917431,66.1211009 C54.3633028,65.3944954 54.2972477,64.5357798 54.0990826,63.412844 C53.9009174,62.2899083 53.8348624,62.1577982 53.7027523,61.7614679 L53.9669725,61.7614679 C53.9669725,61.7614679 54.1651376,61.959633 54.2972477,62.0256881 L54.2972477,62.1577982 C54.2972477,62.1577982 54.3633028,62.2238532 54.5614679,62.1577982 C54.693578,62.0917431 54.8917431,62.1577982 54.8917431,62.1577982 L54.9577982,62.4220183 C54.9577982,62.4220183 55.1559633,63.0165138 56.0146789,63.1486239 L56.0807339,62.9504587 C56.0807339,62.9504587 56.0146789,62.8183486 56.0146789,62.3559633 C56.0146789,61.893578 56.146789,59.9779817 56.0807339,59.2513761 C56.0807339,59.2513761 56.212844,58.6568807 56.212844,57.7981651 C56.212844,57.7981651 56.212844,57.6 56.212844,57.3357798 C56.212844,57.0715596 56.212844,56.8733945 56.212844,56.7412844 L56.0807339,56.7412844 C56.0807339,56.7412844 56.0146789,56.6091743 56.0146789,56.4110092 C56.0146789,56.212844 55.9486239,56.0807339 55.9486239,56.0807339 L55.7504587,55.9486239 C55.7504587,55.9486239 55.6183486,55.4862385 55.6183486,55.2880734 L55.6183486,54.8256881 C55.6183486,54.8256881 55.2880734,54.0990826 55.2880734,53.7027523 C55.2880734,53.7027523 55.2880734,53.4385321 55.2880734,53.240367 L55.2220183,53.240367 C55.2220183,53.240367 55.1559633,54.9577982 54.759633,55.9486239 L54.693578,56.4770642 L54.4954128,56.6752294 L54.4293578,57.1376147 C54.4293578,57.1376147 54.2972477,57.3357798 54.2311927,57.4678899 C54.1651376,57.533945 54.0330275,57.666055 54.0330275,57.666055 L54.0330275,57.9302752 C54.0330275,57.9302752 53.7688073,58.3266055 53.4385321,58.6568807 C53.1082569,58.987156 52.9100917,59.4495413 52.9100917,59.4495413 C52.9100917,59.4495413 52.7779817,59.7798165 52.7119266,59.9119266 L52.3155963,60.2422018 C52.3155963,60.2422018 51.6550459,61.2330275 50.6642202,61.893578 L50.2018349,62.4220183 C50.2018349,62.4220183 49.6073394,62.8183486 49.2770642,63.0825688 L49.2110092,63.2807339 L49.012844,63.2807339 C49.012844,63.2807339 48.946789,63.346789 48.946789,63.412844 C48.946789,63.4788991 48.946789,63.5449541 48.7486239,63.6110092 C48.5504587,63.6770642 48.1541284,63.9412844 47.7577982,64.1394495 C47.7577982,64.1394495 47.4275229,64.3376147 46.8990826,64.6018349 C46.3706422,64.866055 45.2477064,65.3944954 44.1247706,65.7247706 L43.6623853,65.7247706 C43.6623853,65.7247706 42.8036697,65.9889908 42.1431193,65.7908257 L42.1431193,65.9229358 L42.5394495,65.9229358 C42.5394495,65.9229358 42.6055046,65.9889908 42.7376147,65.9889908 L42.8697248,65.9889908 L42.8697248,66.0550459 L42.8036697,66.0550459 C42.8036697,66.0550459 42.6055046,66.253211 42.2091743,66.253211 C41.812844,66.253211 40.5577982,66.1211009 39.7651376,64.9981651 C38.9724771,63.8752294 38.5761468,61.6293578 38.5761468,61.6293578 L38.5761468,61.0348624 C38.5761468,61.0348624 37.5853211,58.5908257 39.5009174,56.7412844 C39.5009174,56.7412844 39.5669725,56.6752294 39.6990826,56.6752294 C39.8311927,56.6752294 39.8972477,56.6091743 39.9633028,56.4110092 C40.0293578,56.212844 40.1614679,56.146789 40.293578,56.0807339 C40.4256881,56.0146789 40.9541284,55.6844037 41.8788991,55.6844037 C41.8788991,55.6844037 42.0770642,56.0146789 42.2752294,56.212844 C42.4733945,56.4110092 42.6055046,56.7412844 42.6055046,56.9394495 C42.6055046,56.9394495 42.4733945,57.0715596 42.4733945,57.4018349 C42.4733945,57.7321101 42.4733945,58.4587156 42.4733945,58.4587156 C42.4733945,58.4587156 42.5394495,59.3834862 42.0770642,59.5155963 C41.6146789,59.6477064 41.3504587,59.7798165 41.3504587,59.7798165 C41.3504587,59.7798165 41.4165138,59.9779817 41.2844037,60.1100917 C41.2844037,60.1100917 41.2183486,60.1761468 41.2183486,60.2422018 L41.3504587,60.2422018 C41.3504587,60.2422018 41.4165138,60.0440367 41.9449541,59.8458716 C41.9449541,59.8458716 42.0110092,59.9779817 42.0770642,59.9779817 C42.2091743,60.0440367 42.2091743,60.0440367 42.2091743,60.0440367 C42.2091743,60.0440367 41.4825688,60.0440367 41.0201835,60.7045872 C40.5577982,61.3651376 40.359633,61.4311927 40.359633,61.4311927 L40.359633,61.4972477 L40.4256881,61.4972477 C40.4256881,61.4972477 42.1431193,62.8844037 45.7100917,61.2990826 C49.2770642,59.7137615 53.9669725,55.6844037 54.0990826,52.1834862 C54.0990826,52.1834862 53.9669725,52.0513761 53.7688073,51.853211 C53.6366972,51.6550459 53.240367,51.3247706 52.0513761,51.1926606 C50.7963303,50.9944954 50.2678899,51.1266055 49.6733945,51.2587156 L48.946789,51.2587156 L48.0220183,51.5229358 L47.559633,51.5229358 C47.559633,51.5229358 44.7192661,52.3816514 42.0770642,53.5706422 L41.2844037,53.7688073 C41.2844037,53.7688073 39.8311927,54.693578 38.906422,54.2972477 C38.906422,54.2972477 38.7082569,54.1651376 38.5761468,54.2311927 L38.5100917,54.0990826 C38.5100917,54.0990826 38.3119266,54.0330275 38.1798165,53.6366972 C38.0477064,53.306422 37.8495413,53.306422 37.8495413,53.306422 C37.8495413,53.306422 37.7174312,53.4385321 37.3211009,53.5045872 C36.9908257,53.5706422 36.5284404,53.7027523 36.3302752,53.9009174 C36.1321101,54.0330275 35.7357798,54.2311927 35.7357798,54.2311927 L35.0091743,54.2311927 L34.1504587,54.6275229 L33.8201835,54.6275229 L29.7247706,56.146789 C29.7247706,56.146789 29.3944954,56.2788991 29.1302752,56.2788991 C28.866055,56.2788991 28.5357798,56.4770642 28.5357798,56.4770642 C28.5357798,56.4770642 27.2807339,57.0715596 26.6201835,57.0715596 L26.6201835,62.4220183 L27.2146789,62.6201835 L27.2807339,62.9504587 C27.2807339,62.9504587 27.2146789,63.0825688 27.1486239,63.0825688 C27.0825688,63.0825688 27.0825688,63.2146789 27.1486239,63.346789 C27.2146789,63.4788991 27.346789,63.4788991 27.2807339,63.6770642 C27.2146789,63.8752294 27.2146789,63.9412844 27.1486239,64.1394495 C27.0825688,64.3376147 27.0825688,64.5357798 27.0825688,64.5357798 C27.0825688,64.5357798 27.1486239,65.3284404 27.0165138,65.5926606 C27.0165138,65.5926606 26.8844037,65.7247706 26.8183486,65.7908257 C26.8183486,65.7908257 26.7522936,65.9889908 26.9504587,66.253211 C26.9504587,66.253211 26.9504587,66.3853211 26.8183486,66.5174312 C26.7522936,66.5834862 26.7522936,66.5834862 26.7522936,66.6495413 L55.4201835,66.6495413 C55.2220183,66.5174312 55.0899083,66.3192661 54.8917431,66.1211009 Z" fill="#B0AFB2"></path>
                <path d="M2.77431193,18.759633 L2.64220183,18.759633 C2.51009174,18.759633 2.57614679,19.4862385 2.57614679,19.4862385 L2.51009174,19.2880734 L2.11376147,19.0238532 C1.91559633,19.1559633 1.98165138,19.3541284 1.98165138,19.3541284 C1.84954128,19.2220183 1.65137615,19.0238532 1.65137615,19.0238532 C1.5853211,19.6183486 1.78348624,20.0807339 1.78348624,20.0807339 C1.91559633,20.6752294 1.5853211,21.0055046 1.5853211,21.0055046 L1.65137615,22.3266055 C1.84954128,22.1944954 1.98165138,21.9302752 1.98165138,21.9302752 L2.11376147,22.4587156 C2.24587156,22.3266055 2.31192661,22.3266055 2.4440367,22.3266055 C2.57614679,22.1944954 2.90642202,21.9963303 2.64220183,22.5908257 C2.70825688,22.8550459 2.57614679,23.3174312 2.57614679,23.3174312 C3.03853211,23.7137615 3.10458716,24.3743119 2.77431193,24.9027523 C2.51009174,25.2330275 2.51009174,25.6293578 2.51009174,25.893578 C2.4440367,26.0256881 2.37798165,26.1577982 2.31192661,26.2899083 C2.31192661,26.2899083 2.4440367,26.2238532 2.64220183,26.2899083 C2.77431193,26.4220183 2.84036697,26.6201835 2.90642202,26.8183486 L2.64220183,27.0165138 L2.84036697,27.0825688 C2.84036697,27.0825688 2.84036697,27.0165138 2.90642202,27.0165138 C2.97247706,27.2146789 2.97247706,27.412844 2.97247706,27.6770642 L2.84036697,27.7431193 L2.70825688,28.4036697 C2.77431193,28.3376147 2.77431193,28.3376147 2.84036697,28.2715596 C2.84036697,28.3376147 2.77431193,28.4036697 2.77431193,28.4697248 C2.37798165,29.2623853 2.4440367,30.1211009 2.4440367,30.1211009 L2.90642202,30.253211 C2.84036697,30.8477064 2.51009174,30.8477064 2.51009174,30.8477064 C2.51009174,30.8477064 1.71743119,30.7816514 1.91559633,31.5082569 C2.11376147,32.2348624 1.78348624,32.4990826 1.78348624,32.4990826 L1.91559633,33.4238532 C2.24587156,33.8201835 1.84954128,33.8862385 1.84954128,33.8862385 C1.91559633,34.4146789 1.78348624,35.1412844 1.78348624,35.1412844 C1.84954128,35.2073394 1.84954128,35.2733945 1.84954128,35.3394495 L2.11376147,35.4715596 L1.98165138,35.6697248 C2.04770642,36.066055 1.84954128,36.3302752 1.84954128,36.3302752 L1.65137615,36.3963303 C1.65137615,36.9908257 1.45321101,37.6513761 1.45321101,37.6513761 C2.11376147,37.5853211 2.70825688,37.9155963 2.70825688,37.9155963 C3.30275229,37.6513761 3.30275229,37.9816514 3.30275229,37.9816514 C2.57614679,38.1798165 2.37798165,38.6422018 2.37798165,38.6422018 L2.77431193,38.906422 C2.77431193,38.906422 2.37798165,38.9724771 2.24587156,39.2366972 C2.11376147,39.3027523 1.98165138,39.3688073 1.84954128,39.5009174 C1.84954128,39.5009174 2.04770642,39.5009174 2.17981651,39.5669725 C2.17981651,39.5669725 2.17981651,39.6330275 2.17981651,39.6330275 C2.17981651,39.6330275 2.17981651,39.6990826 2.17981651,39.6990826 L1.98165138,39.8311927 L2.24587156,39.8311927 C2.24587156,39.8972477 2.24587156,39.9633028 2.24587156,40.0293578 C2.17981651,40.0954128 2.04770642,40.1614679 1.91559633,40.1614679 C1.65137615,40.2275229 1.45321101,40.359633 1.45321101,40.359633 C1.5853211,40.4917431 1.71743119,40.4917431 1.71743119,40.4917431 L1.84954128,40.5577982 C1.78348624,40.6238532 1.71743119,40.6899083 1.71743119,40.6899083 L1.51926606,40.8220183 L1.5853211,41.0201835 C1.51926606,41.4165138 1.71743119,41.746789 1.71743119,41.746789 C0.924770642,42.1431193 1.51926606,42.6715596 1.51926606,42.6715596 C1.12293578,42.6715596 0.924770642,42.8697248 0.924770642,42.8697248 L1.65137615,43.133945 L1.38715596,43.3321101 C1.32110092,43.3321101 1.18899083,43.3321101 1.05688073,43.3981651 L1.18899083,43.5963303 C1.05688073,43.7944954 0.924770642,44.0587156 0.924770642,44.2568807 L1.12293578,44.3889908 L0.924770642,44.5211009 C0.924770642,44.5211009 0.924770642,44.587156 0.924770642,44.587156 C0.990825688,44.653211 1.18899083,44.7192661 1.18899083,44.7192661 C1.18899083,44.7192661 1.05688073,44.7853211 0.924770642,44.7853211 C0.924770642,44.9834862 0.990825688,45.1816514 1.05688073,45.3798165 C1.32110092,46.106422 1.05688073,46.5027523 1.05688073,46.5027523 C1.05688073,46.5688073 1.12293578,46.6348624 1.12293578,46.7009174 C0.990825688,46.6348624 0.924770642,46.5027523 0.924770642,46.5027523 C0.924770642,46.2385321 0.79266055,46.106422 0.79266055,46.106422 L0.660550459,46.5027523 L1.05688073,46.8990826 C0.858715596,46.7669725 0.660550459,46.8990826 0.660550459,46.8990826 C0.726605505,47.0972477 0.528440367,47.2954128 0.528440367,47.2954128 C0.858715596,47.6256881 0.462385321,47.7577982 0.462385321,47.7577982 C0.79266055,47.8899083 0.924770642,48.2201835 0.924770642,48.2201835 C0.990825688,48.0880734 1.12293578,48.0220183 1.18899083,47.9559633 C1.25504587,48.0220183 1.32110092,48.0220183 1.32110092,48.0220183 C1.32110092,48.4183486 1.32110092,48.2862385 0.858715596,48.6165138 C0.396330275,48.946789 1.05688073,48.946789 1.05688073,48.946789 L0.924770642,49.2110092 C0.462385321,49.0788991 0.528440367,49.5412844 0.528440367,49.5412844 C0.528440367,49.5412844 0.528440367,49.6073394 0.528440367,49.6073394 L0.198165138,49.5412844 L0.264220183,49.8055046 L0.0660550459,49.8055046 C0.0660550459,50.0036697 0.132110092,50.1357798 0.198165138,50.2018349 C0.132110092,50.2678899 0.0660550459,50.333945 0.0660550459,50.333945 L0.132110092,51.3247706 C0.79266055,51.5889908 0.132110092,51.9192661 0.132110092,51.9192661 C0.132110092,52.1174312 0.198165138,52.3155963 0.264220183,52.4477064 L0.594495413,52.5137615 L0.330275229,52.6458716 C0.528440367,52.9761468 0.858715596,53.240367 0.858715596,53.240367 C0.132110092,53.5706422 0.528440367,53.9009174 0.528440367,53.9009174 L0.528440367,54.1651376 C0.594495413,54.4293578 1.32110092,54.8256881 1.32110092,54.8256881 C1.71743119,55.1559633 0.990825688,55.3541284 0.990825688,55.3541284 C1.12293578,55.4862385 1.32110092,55.6183486 1.32110092,55.6183486 C0.990825688,56.3449541 1.65137615,56.2788991 1.65137615,56.2788991 C1.65137615,56.2788991 1.65137615,56.5431193 1.71743119,56.9394495 L1.32110092,57.1376147 C1.32110092,57.1376147 1.51926606,57.2036697 1.65137615,57.3357798 C1.65137615,57.4678899 1.65137615,57.6 1.65137615,57.7981651 C1.51926606,57.7981651 1.32110092,57.9302752 1.25504587,58.1284404 L1.5853211,58.1284404 C1.51926606,58.5247706 1.38715596,58.8550459 1.25504587,59.1192661 C0.660550459,59.9779817 0.990825688,60.0440367 0.990825688,60.0440367 C0.726605505,60.440367 0.660550459,60.9027523 0.660550459,60.9027523 L1.12293578,61.1009174 C1.12293578,61.2990826 0.990825688,61.6954128 0.990825688,61.6954128 L1.25504587,61.6954128 L1.38715596,62.2238532 L1.51926606,62.2238532 C1.38715596,62.4220183 1.45321101,63.0165138 1.45321101,63.0165138 C1.38715596,63.0165138 1.32110092,63.1486239 1.32110092,63.1486239 L1.32110092,63.2146789 C1.45321101,63.2146789 1.51926606,63.0825688 1.51926606,63.0825688 L1.65137615,63.0825688 L1.5853211,63.346789 C1.45321101,63.346789 1.38715596,63.4788991 1.38715596,63.4788991 L1.25504587,63.4788991 L1.32110092,63.5449541 L1.45321101,63.5449541 C1.45321101,64.0073394 1.84954128,64.3376147 1.84954128,64.3376147 C1.78348624,64.8 1.5853211,65.2623853 1.5853211,65.2623853 C1.84954128,65.5926606 1.91559633,65.8568807 1.91559633,65.8568807 L1.51926606,65.9889908 C1.51926606,66.3853211 1.98165138,66.4513761 1.98165138,66.4513761 L1.98165138,66.7155963 L25.3651376,66.7155963 L25.4311927,66.253211 C25.4311927,66.253211 25.1669725,65.3944954 25.3651376,63.8091743 C25.4972477,62.2238532 25.4972477,61.959633 25.4972477,61.1669725 L25.4972477,56.7412844 L25.3651376,56.7412844 C25.3651376,56.7412844 25.2330275,57.0055046 24.7706422,56.7412844 L24.7706422,56.6091743 L24.440367,55.8165138 C24.440367,55.8165138 24.5724771,55.6183486 24.5724771,55.4862385 L24.440367,55.4201835 L24.3082569,54.2972477 C24.3082569,54.2972477 24.440367,53.9009174 24.3743119,53.5706422 L24.2422018,53.5045872 L24.3082569,53.1082569 C24.3082569,53.1082569 24.1761468,52.9100917 24.1761468,52.7779817 C24.1761468,52.7779817 24.3743119,52.3155963 25.4311927,52.1834862 L25.3651376,49.4091743 L24.8366972,49.5412844 C24.8366972,49.5412844 24.7706422,49.2110092 24.7706422,48.8146789 C24.7706422,48.8146789 24.9027523,48.4844037 24.8366972,48.0220183 C24.8366972,48.0220183 24.6385321,46.7009174 24.506422,46.3706422 C24.506422,46.3706422 24.5724771,46.106422 24.6385321,45.7761468 C24.7045872,45.5119266 24.8366972,45.3137615 24.506422,44.587156 C24.506422,44.587156 24.7045872,44.4550459 24.9688073,44.2568807 C24.9688073,44.2568807 25.1009174,44.1908257 25.2990826,44.1908257 C25.2990826,44.1908257 25.7614679,44.2568807 25.6954128,43.6623853 C25.6954128,43.6623853 25.6293578,43.0018349 25.7614679,42.4733945 L25.893578,41.3504587 L26.0917431,41.2844037 C26.0917431,41.2844037 26.1577982,41.0862385 26.1577982,40.8880734 C26.1577982,40.8880734 26.0917431,40.6238532 26.3559633,40.6238532 L26.8183486,40.6238532 C26.8183486,40.6238532 26.8844037,40.8880734 27.0165138,41.0201835 L27.0165138,41.4165138 C27.0165138,41.4165138 27.412844,42.5394495 27.0165138,43.7944954 L27.0825688,43.7944954 C27.0825688,43.7944954 27.2807339,43.6623853 27.5449541,43.6623853 C27.8091743,43.6623853 28.1394495,43.5302752 28.4036697,43.4642202 L29.5266055,43.0678899 L30.187156,43.0018349 L32.1027523,42.4733945 C32.1027523,42.4733945 32.6311927,42.2752294 32.6972477,42.2752294 L33.6880734,42.1431193 L34.8110092,41.746789 L35.2073394,41.746789 L35.3394495,41.5486239 C35.3394495,41.5486239 35.5376147,41.4825688 35.7357798,41.4825688 C35.7357798,41.4825688 35.933945,41.5486239 36.066055,41.5486239 C36.066055,41.5486239 36.3302752,42.0770642 36.5944954,42.4073394 C36.5944954,42.4073394 36.4623853,42.9357798 36.3302752,43.4642202 C36.1981651,43.9926606 36.2642202,44.0587156 36.1321101,44.4550459 L36.1321101,44.9834862 C36.1321101,44.9834862 35.8018349,45.7761468 35.7357798,46.5688073 C35.7357798,46.5688073 34.8770642,46.5688073 33.9522936,46.9651376 L33.5559633,46.9651376 L32.8954128,47.2293578 L32.5651376,47.2293578 C32.5651376,47.2293578 31.9045872,47.493578 30.9798165,47.6917431 C30.0550459,47.9559633 29.4605505,48.1541284 28.4697248,48.5504587 L27.6770642,48.6825688 C27.6770642,48.6825688 26.9504587,49.0788991 26.6862385,49.012844 L26.6862385,49.9376147 L26.5541284,50.0036697 L26.5541284,51.9192661 C26.5541284,51.9192661 26.9504587,51.853211 27.346789,51.6550459 L27.8752294,51.6550459 L29.3944954,51.1266055 C29.3944954,51.1266055 29.9229358,50.8623853 30.5174312,50.8623853 C30.5174312,50.8623853 30.5834862,51.0605505 30.7816514,50.7963303 L31.1779817,50.7963303 L31.3761468,50.5981651 C31.3761468,50.5981651 31.640367,50.466055 32.0366972,50.466055 C32.4330275,50.466055 32.9614679,50.2018349 32.9614679,50.2018349 L32.9614679,50.0697248 C32.9614679,50.0697248 33.159633,49.9376147 33.4899083,49.9376147 C33.8201835,49.9376147 34.1504587,49.8055046 34.1504587,49.8055046 L34.2165138,49.6733945 L34.7449541,49.6073394 C34.7449541,49.6073394 35.7357798,49.2110092 36.1981651,49.012844 C36.6605505,48.8146789 36.8587156,48.7486239 36.8587156,48.7486239 C36.8587156,48.7486239 37.0568807,48.6825688 37.1889908,48.6165138 L37.1889908,48.0220183 C37.1889908,48.0220183 37.2550459,47.9559633 37.3211009,47.8899083 C37.387156,47.8238532 37.453211,47.7577982 37.5853211,47.4275229 C37.7174312,47.1633028 37.9816514,46.7009174 38.7082569,46.1724771 C39.4348624,45.6440367 40.1614679,44.9174312 40.1614679,44.9174312 C40.1614679,44.9174312 40.6238532,44.5211009 41.0201835,44.3889908 C41.0201835,44.3889908 41.2844037,44.1908257 41.4165138,43.9926606 C41.4165138,43.9926606 41.8788991,43.3981651 42.2091743,43.266055 L42.2091743,43.3321101 C42.2091743,43.3321101 42.0110092,43.4642202 41.9449541,43.5963303 L42.0770642,43.5963303 C42.0770642,43.5963303 42.4073394,43.133945 42.9357798,42.8697248 C43.4642202,42.6055046 43.9266055,42.2752294 43.9266055,42.2752294 C43.9266055,42.2752294 46.7669725,40.2275229 49.7394495,40.4256881 C49.7394495,40.4256881 49.9376147,40.6238532 50.1357798,40.8220183 C50.333945,40.9541284 50.5321101,41.2183486 50.7302752,41.6807339 L50.9944954,42.3412844 C50.9944954,42.3412844 51.1266055,42.6715596 50.9284404,42.9357798 L50.9944954,43.266055 L50.6642202,44.5211009 L50.7302752,44.7853211 C50.7302752,44.7853211 50.5981651,45.9082569 50.333945,46.3706422 L50.333945,46.4366972 L50.1357798,46.4366972 C50.1357798,46.4366972 50.2678899,46.040367 49.3431193,45.3137615 C49.3431193,45.3137615 49.4752294,45.2477064 49.4752294,44.9834862 C49.4752294,44.9834862 49.3431193,44.9174312 49.2110092,44.8513761 C49.1449541,44.7853211 48.8807339,44.7192661 48.6165138,44.7192661 C48.3522936,44.7853211 48.2862385,44.7192661 48.2862385,44.7192661 C48.2862385,44.7192661 47.0311927,44.8513761 45.8422018,45.5119266 C45.8422018,45.5119266 45.4458716,45.7761468 45.0495413,45.9743119 L45.0495413,45.9082569 C45.0495413,45.9082569 45.2477064,45.7761468 45.1155963,45.6440367 C45.1155963,45.6440367 45.0495413,45.5779817 45.0495413,45.4458716 C45.0495413,45.4458716 45.1816514,45.3798165 45.1816514,45.3137615 L45.0495413,45.3137615 C45.0495413,45.3137615 44.587156,45.7761468 44.0587156,45.9743119 C44.0587156,45.9743119 43.7944954,46.106422 43.5963303,46.3045872 C43.3981651,46.5027523 43.4642202,46.5688073 42.9357798,46.8330275 C42.4733945,47.0972477 42.0770642,47.4275229 41.4165138,48.0880734 L40.9541284,48.6825688 L40.8220183,48.6165138 L40.6238532,48.7486239 L40.6238532,48.946789 L40.4917431,48.946789 C40.4917431,48.946789 39.8311927,49.4091743 39.6330275,50.0036697 L39.7651376,50.0036697 C39.7651376,50.0036697 39.8311927,49.9376147 40.0293578,49.9376147 C40.1614679,49.9376147 40.4917431,49.8055046 41.0862385,49.4752294 C41.0862385,49.4752294 41.5486239,49.2110092 41.812844,49.2110092 C42.1431193,49.2110092 42.2752294,49.1449541 42.6715596,49.012844 C42.6715596,49.012844 49.2770642,45.7761468 53.1743119,47.8238532 L53.1743119,47.559633 C53.1743119,47.559633 53.5045872,47.3614679 52.8440367,46.106422 L52.9761468,45.3798165 C52.9761468,45.3798165 53.306422,45.3137615 53.5045872,44.9174312 C53.5045872,44.9174312 53.7027523,44.587156 53.8348624,44.4550459 L53.9669725,44.4550459 C53.9669725,44.4550459 54.0330275,44.2568807 54.0990826,44.1908257 L54.2311927,44.1908257 L54.4954128,43.7944954 C54.4954128,43.7944954 54.6275229,43.7284404 54.693578,43.6623853 C54.8256881,43.5963303 54.8917431,43.6623853 55.0899083,43.3321101 L55.3541284,43.266055 L55.5522936,43.0018349 C55.5522936,43.0018349 55.6844037,42.8697248 55.8825688,42.8036697 C56.0807339,42.6715596 56.4110092,42.6055046 56.4110092,42.0110092 C56.4110092,42.0110092 56.5431193,41.8788991 56.4110092,41.2844037 C56.4110092,41.2844037 56.3449541,41.0862385 56.4110092,40.5577982 C56.4770642,40.0293578 56.5431193,38.840367 56.7412844,38.1137615 C56.7412844,38.1137615 57.3357798,38.2458716 57.3357798,38.7082569 C57.3357798,38.7082569 57.4018349,38.7743119 57.4018349,38.906422 C57.4018349,38.906422 57.533945,38.906422 57.6,38.9724771 L57.666055,38.9724771 C57.666055,38.9724771 57.7981651,40.293578 57.7981651,41.6146789 L57.9302752,41.6146789 C57.9302752,41.6146789 58.1284404,41.2844037 58.7889908,41.2844037 C59.3834862,41.2844037 59.7137615,41.0201835 59.7137615,41.0201835 C59.7137615,41.0201835 60.3743119,40.5577982 62.0917431,40.5577982 C63.7431193,40.5577982 64.2715596,41.3504587 64.3376147,41.6807339 C64.4036697,42.0770642 64.4697248,43.0678899 64.3376147,44.2568807 C64.0733945,45.5119266 64.0733945,45.7761468 64.0733945,45.7761468 L64.2055046,45.7761468 C64.2055046,45.7761468 64.3376147,45.6440367 64.6018349,45.7761468 C64.866055,45.9082569 65.1963303,45.7100917 65.1963303,45.7100917 C65.1963303,45.7100917 65.7908257,45.5119266 66.1211009,45.3798165 L66.3192661,45.4458716 C66.3192661,45.4458716 66.5834862,45.3798165 66.9137615,45.3137615 L67.1779817,45.3798165 C67.1779817,45.3798165 68.2348624,45.2477064 69.093578,45.5119266 C69.093578,45.5119266 69.2917431,45.5119266 69.3577982,45.4458716 L69.3577982,45.5779817 L69.6880734,45.5779817 L70.3486239,45.9082569 L70.7449541,45.9082569 L70.8110092,46.106422 C70.8110092,46.106422 71.0091743,46.3045872 71.4055046,46.5688073 C71.4715596,46.6348624 71.6036697,46.7009174 71.6697248,46.7669725 L71.6697248,0.462385321 L1.25504587,0.462385321 L1.51926606,0.924770642 L0.990825688,1.65137615 L1.25504587,1.71743119 L1.05688073,1.98165138 C1.5853211,2.11376147 1.45321101,2.51009174 1.45321101,2.51009174 C1.45321101,2.51009174 1.38715596,2.70825688 1.32110092,3.03853211 C1.38715596,3.03853211 1.45321101,3.10458716 1.45321101,3.23669725 C1.38715596,3.30275229 1.32110092,3.36880734 1.25504587,3.36880734 C1.25504587,3.36880734 1.25504587,3.43486239 1.25504587,3.43486239 C1.32110092,3.43486239 1.38715596,3.43486239 1.45321101,3.56697248 L1.38715596,3.56697248 C1.38715596,3.56697248 1.45321101,3.63302752 1.45321101,3.69908257 L1.51926606,3.76513761 C1.51926606,3.76513761 1.45321101,3.89724771 1.32110092,3.89724771 C1.32110092,4.0293578 1.38715596,4.09541284 1.38715596,4.22752294 C1.65137615,4.82201835 1.18899083,4.55779817 1.18899083,4.55779817 C1.18899083,4.82201835 1.25504587,5.08623853 1.25504587,5.28440367 L1.65137615,5.35045872 L1.32110092,5.54862385 C1.38715596,5.87889908 1.45321101,6.14311927 1.51926606,6.3412844 C1.78348624,6.3412844 2.04770642,6.20917431 2.04770642,6.20917431 C1.91559633,6.3412844 1.71743119,6.4733945 1.5853211,6.53944954 C1.78348624,7.06788991 1.91559633,7.26605505 1.91559633,7.26605505 C1.84954128,7.59633028 1.51926606,7.79449541 1.51926606,7.79449541 C1.51926606,7.79449541 1.65137615,7.99266055 1.71743119,8.38899083 C1.71743119,8.52110092 1.78348624,8.58715596 1.78348624,8.71926606 L2.11376147,8.52110092 L1.91559633,8.91743119 C1.98165138,8.98348624 2.04770642,9.04954128 2.04770642,9.04954128 C2.24587156,9.24770642 2.17981651,9.51192661 2.17981651,9.51192661 C1.98165138,10.3045872 2.4440367,10.7669725 2.4440367,10.7669725 C2.97247706,11.2954128 2.97247706,11.8238532 2.84036697,12.0880734 C2.64220183,12.2201835 2.84036697,12.5504587 2.84036697,12.5504587 C2.90642202,12.6165138 2.90642202,12.6825688 2.90642202,12.7486239 L2.64220183,12.6825688 C2.64220183,12.6825688 2.64220183,12.8807339 2.51009174,12.946789 C2.51009174,12.946789 2.51009174,13.1449541 3.03853211,13.2770642 L3.23669725,13.4091743 L3.1706422,13.4091743 L2.77431193,13.8715596 C2.4440367,13.8055046 2.57614679,13.4752294 2.57614679,13.3431193 C2.57614679,13.3431193 2.51009174,13.2770642 2.51009174,13.2770642 C2.04770642,12.6165138 2.04770642,13.012844 1.91559633,13.4091743 C1.78348624,13.8055046 1.45321101,13.7394495 1.45321101,13.7394495 C1.25504587,14.5321101 1.45321101,15.5229358 1.45321101,15.5229358 C2.31192661,17.5706422 1.84954128,18.6275229 1.84954128,18.6275229 L1.98165138,18.693578 C2.37798165,18.5614679 2.24587156,17.6366972 2.24587156,17.6366972 C2.24587156,17.4385321 2.24587156,17.306422 2.31192661,17.240367 C2.31192661,17.240367 2.4440367,17.5045872 2.51009174,17.6366972 C2.51009174,17.6366972 2.70825688,17.306422 2.77431193,17.0422018 C2.77431193,16.9761468 2.90642202,17.1082569 2.90642202,17.1082569 C3.03853211,17.1743119 3.03853211,17.1743119 3.10458716,17.240367 L3.1706422,16.9100917 C2.90642202,16.5137615 2.90642202,16.0513761 2.90642202,16.0513761 C3.03853211,15.9853211 3.10458716,16.0513761 3.10458716,16.3155963 C3.10458716,16.6458716 3.1706422,16.8440367 3.30275229,16.9761468 C3.43486239,17.0422018 3.50091743,17.1743119 3.56697248,17.1743119 C3.56697248,17.1743119 3.56697248,17.1743119 3.56697248,17.1743119 C3.56697248,17.1082569 3.50091743,17.1082569 3.50091743,17.1082569 L3.50091743,16.5137615 L3.89724771,16.8440367 C3.89724771,16.8440367 3.36880734,16.3816514 3.63302752,17.0422018 C3.69908257,16.9761468 3.69908257,16.9761468 3.76513761,16.9761468 C3.76513761,17.1082569 3.76513761,17.4385321 3.56697248,17.5706422 C3.56697248,17.5706422 3.50091743,17.7688073 3.96330275,17.9009174 C3.96330275,18.0330275 3.96330275,18.0990826 3.96330275,18.0990826 C3.96330275,18.2972477 3.96330275,18.4293578 4.16146789,18.693578 C4.29357798,18.9577982 4.35963303,18.9577982 4.22752294,19.5522936 C3.89724771,19.4201835 3.76513761,19.6844037 3.69908257,19.8165138 C3.56697248,19.6844037 3.30275229,19.4201835 3.1706422,19.1559633 C3.1706422,19.1559633 3.03853211,19.2220183 2.97247706,19.3541284 C2.97247706,19.3541284 3.23669725,19.4201835 3.23669725,19.6183486 C3.23669725,19.6183486 3.03853211,19.6844037 3.10458716,19.9486239 L2.97247706,20.0807339 C2.97247706,20.0807339 2.70825688,19.7504587 2.77431193,19.1559633 C2.77431193,19.1559633 2.90642202,19.1559633 3.03853211,19.0899083 L2.77431193,18.759633 Z M2.04770642,2.24587156 C2.04770642,2.24587156 2.04770642,2.31192661 1.91559633,2.37798165 C1.91559633,2.37798165 1.98165138,2.4440367 1.91559633,2.51009174 C1.98165138,2.64220183 2.04770642,2.57614679 2.04770642,2.57614679 L2.17981651,2.4440367 C2.17981651,2.4440367 2.31192661,2.57614679 2.04770642,2.70825688 C1.91559633,2.77431193 1.84954128,2.51009174 1.84954128,2.4440367 C1.78348624,2.4440367 1.71743119,2.51009174 1.65137615,2.51009174 L1.65137615,2.4440367 C1.65137615,2.4440367 1.91559633,2.31192661 2.04770642,2.24587156 Z M2.04770642,3.36880734 C2.04770642,3.56697248 1.84954128,3.56697248 1.84954128,3.56697248 C1.78348624,3.43486239 2.04770642,3.36880734 2.04770642,3.36880734 Z M1.5853211,2.64220183 L1.65137615,2.64220183 C1.65137615,2.64220183 1.65137615,2.70825688 1.84954128,2.77431193 C1.98165138,2.84036697 1.91559633,3.10458716 1.91559633,3.10458716 C1.91559633,3.10458716 1.84954128,3.23669725 1.71743119,3.23669725 C1.71743119,3.23669725 1.84954128,3.10458716 1.71743119,3.03853211 C1.5853211,2.97247706 1.78348624,2.90642202 1.78348624,2.90642202 C1.78348624,2.90642202 1.38715596,2.84036697 1.5853211,2.64220183 Z M1.38715596,5.08623853 C1.25504587,4.95412844 1.38715596,4.88807339 1.38715596,4.88807339 L1.5853211,5.08623853 C1.5853211,5.02018349 1.5853211,5.15229358 1.38715596,5.08623853 Z M1.65137615,3.89724771 C1.98165138,3.76513761 2.04770642,4.0293578 2.04770642,4.0293578 C1.98165138,4.0293578 1.91559633,4.0293578 1.84954128,4.0293578 C1.84954128,4.22752294 1.65137615,4.22752294 1.65137615,4.22752294 C1.65137615,4.09541284 1.78348624,4.09541284 1.84954128,4.0293578 C1.65137615,3.96330275 1.65137615,3.89724771 1.65137615,3.89724771 Z M1.98165138,5.02018349 C1.84954128,5.21834862 1.65137615,5.02018349 1.65137615,5.02018349 L1.71743119,4.82201835 C1.98165138,4.82201835 1.98165138,5.02018349 1.98165138,5.02018349 Z M1.71743119,4.35963303 L2.11376147,4.22752294 C2.11376147,4.22752294 2.11376147,4.49174312 1.71743119,4.35963303 Z M2.31192661,3.56697248 C2.24587156,3.83119266 1.98165138,3.83119266 1.98165138,3.83119266 C1.98165138,3.69908257 2.04770642,3.56697248 2.04770642,3.56697248 C2.31192661,3.50091743 2.31192661,3.56697248 2.31192661,3.56697248 Z M2.31192661,3.50091743 C2.04770642,3.43486239 2.04770642,3.30275229 2.04770642,3.30275229 C2.37798165,3.23669725 2.31192661,3.50091743 2.31192661,3.50091743 Z M2.37798165,13.6073394 C2.4440367,14.0697248 2.17981651,14.2678899 2.17981651,14.2678899 L2.11376147,13.6073394 C2.17981651,13.3431193 2.31192661,13.2110092 2.37798165,13.6073394 Z M1.71743119,14.5321101 C1.91559633,14.466055 1.98165138,14.5981651 1.98165138,14.5981651 L2.17981651,14.4 L2.04770642,15.0605505 C2.04770642,15.1266055 1.45321101,14.5981651 1.71743119,14.5321101 Z M2.51009174,14.9284404 C2.51009174,14.9284404 2.24587156,15.2587156 2.24587156,15.6550459 C2.24587156,16.0513761 2.04770642,16.1174312 2.04770642,16.1174312 C2.04770642,16.1174312 1.78348624,15.9853211 2.11376147,15.2587156 C2.4440367,14.466055 2.51009174,14.8623853 2.51009174,14.8623853 L2.51009174,14.9284404 Z M3.43486239,8.52110092 C3.56697248,8.38899083 3.76513761,8.85137615 3.83119266,9.18165138 C3.83119266,9.18165138 3.30275229,8.65321101 3.43486239,8.52110092 Z M2.57614679,9.37981651 C2.17981651,9.04954128 2.70825688,8.58715596 2.70825688,8.58715596 C2.70825688,8.58715596 2.97247706,9.71009174 2.57614679,9.37981651 Z M2.97247706,3.1706422 C2.64220183,3.23669725 2.4440367,3.63302752 2.4440367,3.63302752 C2.4440367,3.63302752 2.31192661,3.43486239 2.64220183,3.10458716 C2.97247706,2.84036697 2.84036697,2.51009174 2.84036697,2.51009174 L2.51009174,2.57614679 C2.57614679,2.4440367 2.4440367,2.11376147 2.4440367,2.11376147 L2.70825688,2.24587156 L3.10458716,2.04770642 C3.10458716,2.04770642 3.30275229,3.03853211 2.97247706,3.1706422 Z M3.30275229,14.5981651 C3.10458716,14.7963303 3.1706422,14.7963303 3.23669725,15.2587156 C3.30275229,15.7211009 3.03853211,15.5229358 2.84036697,14.9944954 C2.70825688,14.4 3.03853211,14.5321101 3.03853211,14.5321101 C3.1706422,14.2678899 2.97247706,14.0697248 2.97247706,14.0697248 L3.1706422,13.9376147 C3.63302752,14.333945 3.30275229,14.5981651 3.30275229,14.5981651 Z M3.30275229,11.7577982 C3.10458716,11.1633028 3.36880734,10.8990826 3.36880734,10.8990826 C3.50091743,11.2293578 3.50091743,12.4183486 3.30275229,11.7577982 Z M3.89724771,15.9853211 C3.63302752,16.0513761 3.56697248,15.9192661 3.56697248,15.9192661 C3.56697248,15.9192661 3.50091743,15.787156 3.69908257,15.787156 C3.89724771,15.787156 3.89724771,15.9853211 3.89724771,15.9853211 Z M3.69908257,11.4275229 C3.89724771,11.2954128 3.96330275,11.9559633 3.96330275,11.9559633 C3.96330275,11.9559633 3.43486239,11.6256881 3.69908257,11.4275229 Z M2.97247706,35.1412844 L2.70825688,35.2733945 L2.64220183,35.0091743 L2.97247706,35.1412844 Z M2.51009174,35.3394495 L2.51009174,35.4715596 L3.1706422,35.2073394 C3.23669725,35.5376147 2.97247706,35.5376147 2.97247706,35.5376147 C2.51009174,35.5376147 2.37798165,35.6697248 2.37798165,35.6697248 C2.11376147,35.6036697 2.51009174,35.3394495 2.51009174,35.3394495 Z M2.97247706,37.1229358 C2.97247706,37.1229358 2.70825688,37.3211009 2.37798165,37.1229358 L2.77431193,36.9908257 L2.77431193,36.8587156 C2.77431193,36.7926606 3.23669725,36.7266055 2.97247706,37.1229358 Z M3.1706422,36.2642202 C2.97247706,36.3302752 3.03853211,36.5284404 3.03853211,36.5284404 C2.64220183,36.3963303 2.84036697,36.1981651 2.84036697,36.1981651 C3.23669725,36.1321101 3.1706422,36.2642202 3.1706422,36.2642202 Z M0.79266055,47.7577982 L0.858715596,47.559633 C0.858715596,47.1633028 1.05688073,47.0972477 1.05688073,47.0972477 C1.45321101,47.4275229 0.79266055,47.7577982 0.79266055,47.7577982 Z M1.32110092,45.3798165 C1.05688073,45.1816514 1.18899083,45.0495413 1.18899083,45.0495413 C1.51926606,45.0495413 1.32110092,45.3798165 1.32110092,45.3798165 Z M3.03853211,38.906422 C3.30275229,39.0385321 3.03853211,39.1706422 3.03853211,39.1706422 L2.64220183,39.3027523 L3.03853211,38.906422 Z M2.77431193,40.359633 C2.84036697,40.2275229 2.70825688,40.0954128 2.70825688,40.0954128 C2.84036697,39.8311927 3.03853211,40.0293578 3.03853211,40.0293578 L2.90642202,40.1614679 C2.97247706,40.359633 2.77431193,40.359633 2.77431193,40.359633 Z M2.4440367,40.0293578 C2.4440367,40.0293578 2.64220183,39.9633028 2.57614679,40.2275229 C2.51009174,40.4917431 2.31192661,40.293578 2.31192661,40.293578 L2.51009174,40.0954128 L2.4440367,40.0293578 Z M2.77431193,40.8220183 C2.77431193,40.8220183 2.84036697,40.8220183 2.77431193,40.6899083 C2.77431193,40.6899083 2.84036697,40.6238532 3.03853211,40.6899083 C3.03853211,40.6899083 3.03853211,41.0201835 2.51009174,41.1522936 L2.51009174,40.9541284 L2.31192661,40.8880734 C2.31192661,40.8880734 2.51009174,40.7559633 2.77431193,40.8220183 Z M1.78348624,42.2091743 C1.65137615,42.0770642 1.5853211,42.0770642 1.65137615,42.2752294 L1.5853211,42.3412844 C1.5853211,42.3412844 1.45321101,42.2091743 1.51926606,42.0110092 C1.51926606,42.0110092 1.91559633,41.6807339 1.98165138,42.2091743 C2.04770642,42.2752294 1.91559633,42.3412844 1.78348624,42.2091743 Z M1.91559633,43.0018349 C1.98165138,42.7376147 2.17981651,42.7376147 2.17981651,42.7376147 C2.17981651,43.0678899 1.91559633,43.0018349 1.91559633,43.0018349 Z M2.04770642,45.8422018 C2.04770642,45.8422018 2.11376147,45.5779817 2.31192661,45.7100917 C2.37798165,45.7100917 2.31192661,45.9743119 2.04770642,45.8422018 Z M2.11376147,42.6055046 C2.31192661,42.4733945 2.37798165,42.2752294 2.37798165,42.2752294 C2.31192661,42.1431193 2.11376147,42.0770642 2.11376147,42.0770642 C2.31192661,41.746789 2.4440367,42.0110092 2.4440367,42.0110092 C2.4440367,42.1431193 2.77431193,42.2752294 2.77431193,42.2752294 C2.57614679,42.5394495 2.11376147,42.6055046 2.11376147,42.6055046 Z M2.90642202,41.8788991 C2.84036697,41.8788991 2.77431193,42.0110092 2.77431193,42.0110092 L2.70825688,42.0110092 C2.77431193,41.746789 2.97247706,41.6807339 2.97247706,41.6807339 C3.1706422,41.6807339 3.23669725,41.746789 3.23669725,41.746789 C3.1706422,41.8788991 2.97247706,41.8788991 2.90642202,41.8788991 Z M3.36880734,38.9724771 L3.36880734,38.9724771 C3.30275229,38.7082569 3.63302752,38.6422018 3.63302752,38.6422018 L3.63302752,38.840367 C3.43486239,38.7743119 3.36880734,38.9724771 3.36880734,38.9724771 Z M4.35963303,18.6275229 C4.42568807,18.4293578 4.55779817,18.4293578 4.55779817,18.4293578 C4.55779817,18.4293578 4.82201835,18.0990826 4.49174312,17.8348624 C4.16146789,17.5706422 4.29357798,16.9100917 4.29357798,16.9100917 L4.55779817,17.306422 C4.62385321,17.7027523 4.88807339,17.9009174 4.88807339,17.9009174 C4.95412844,17.6366972 5.08623853,17.7027523 5.08623853,17.7027523 C5.08623853,17.7027523 5.08623853,17.7688073 5.08623853,18.1651376 C4.95412844,18.693578 4.35963303,18.6275229 4.35963303,18.6275229 Z M5.02018349,19.5522936 C5.02018349,19.5522936 5.08623853,19.8165138 4.82201835,19.7504587 C4.55779817,19.6844037 4.62385321,19.2880734 4.62385321,19.2880734 C4.7559633,19.2880734 4.68990826,19.3541284 4.95412844,19.0899083 C5.21834862,18.8256881 5.28440367,19.2220183 5.28440367,19.2220183 C4.95412844,19.2220183 5.02018349,19.5522936 5.02018349,19.5522936 Z M5.21834862,18.4954128 C5.21834862,18.4954128 5.48256881,17.5706422 5.08623853,17.5706422 C5.08623853,17.5706422 4.88807339,17.5045872 4.88807339,17.306422 C4.88807339,17.306422 5.28440367,17.5706422 5.54862385,17.240367 L5.6146789,17.5045872 C5.6146789,17.5045872 5.41651376,17.6366972 5.48256881,18.2311927 C5.41651376,18.2311927 5.28440367,18.9577982 5.21834862,18.4954128 Z M5.48256881,19.3541284 C5.41651376,18.8917431 5.68073394,19.1559633 5.68073394,19.1559633 L5.68073394,19.4862385 C5.54862385,19.5522936 5.48256881,19.3541284 5.48256881,19.3541284 Z" fill="#B0AFB2"></path>
                <path d="M41.6807339,65.7908257 C41.6807339,65.7908257 41.812844,65.9229358 41.9449541,65.8568807 L42.0110092,65.8568807 L42.0110092,65.7908257 L41.6807339,65.7908257 Z" fill="#0071BC"></path>
                <path d="M65.7247706,50.0697248 L65.5266055,50.0697248 C65.6587156,50.2018349 65.7247706,50.0697248 65.7247706,50.0697248 Z" fill="#0071BC"></path>
                <path d="M64.3376147,50.5981651 L64.4697248,50.5981651 C64.4697248,50.5981651 64.733945,50.333945 65.5266055,50.2018349 L65.5266055,50.1357798 L65.3944954,50.1357798 L64.3376147,50.5981651 L64.3376147,50.5981651 Z" fill="#0071BC"></path>
                <polygon fill="#0071BC" points="65.7908257 49.6733945 65.7247706 49.6073394 65.5926606 49.6073394 65.6587156 49.6733945"></polygon>
                <polygon fill="#0071BC" points="40.9541284 65.6587156 41.0201835 65.6587156 41.0201835 65.5266055 40.9541284 65.5266055"></polygon>
                <path d="M64.3376147,50.0697248 L64.4697248,50.0697248 L64.3376147,50.0697248 L64.3376147,50.0697248 C64.3376147,50.0036697 64.3376147,50.0697248 64.3376147,50.0697248 Z" fill="#0071BC"></path>
                <path d="M41.2183486,65.6587156 C41.2183486,65.6587156 41.4165138,65.8568807 41.4165138,65.8568807 L41.6146789,65.7908257 L41.6146789,65.7247706 L41.2183486,65.6587156 Z" fill="#0071BC"></path>
            </g>
        </g>
    </g>
</svg>