<?xml version="1.0" encoding="UTF-8" standalone="no"?>
<svg width="320px" height="180px" viewBox="0 0 320 180" version="1.1" xmlns="http://www.w3.org/2000/svg" xmlns:xlink="http://www.w3.org/1999/xlink">
    <!-- Generator: Sketch 46.2 (44496) - http://www.bohemiancoding.com/sketch -->
    <title>imagewall-logo</title>
    <desc>Created with Sketch.</desc>
    <defs></defs>
    <g id="Page-1" stroke="none" stroke-width="1" fill="none" fill-rule="evenodd">
        <g id="imagewall-logo" fill="#B0AFB2">
            <g transform="translate(88.000000, 81.000000)" id="IMAGEWALL-Copy">
                <path d="M3.79018613,0.241525424 L0,0.241525424 L0,18.7584746 L3.79018613,18.7584746 L3.79018613,0.241525424 Z M11.6277496,0.241525424 L8.08121827,0.241525424 L8.08121827,18.7584746 L11.6818951,18.7584746 L11.6818951,7.35310734 L15.6886633,15.430791 L17.9898477,15.430791 L22.0507614,7.27259887 L22.0507614,18.7584746 L25.678511,18.7584746 L25.678511,0.241525424 L22.0778342,0.241525424 L16.8798646,10.3319209 L11.6277496,0.241525424 Z M31.8104907,18.7584746 L27.749577,18.7584746 L34.2470389,0.241525424 L37.8747885,0.241525424 L44.3722504,18.7584746 L40.3384095,18.7584746 L39.2013536,15.2429379 L32.9475465,15.2429379 L31.8104907,18.7584746 Z M36.0609137,5.55508475 L33.9492386,12.0762712 L38.1725888,12.0762712 L36.0609137,5.55508475 Z M52.5888325,9.12429379 L52.5888325,12.2909605 L55.7292724,12.2909605 C55.5126904,14.5183616 54.6463621,15.8333333 52.5076142,15.8333333 C50.3147208,15.8333333 49.1505922,14.3573446 49.1505922,10.8149718 L49.1505922,8.18502825 C49.1505922,4.64265537 50.3147208,3.16666667 52.5076142,3.16666667 C54.4027073,3.16666667 55.4043993,4.29378531 55.7292724,5.98446328 L59.357022,5.98446328 C58.7884941,2.20056497 56.4331641,0 52.5076142,0 C48.3113367,0 45.3604061,2.46892655 45.3604061,8.45338983 L45.3604061,10.8149718 C45.3604061,16.4774011 48.3113367,19 52.5076142,19 C56.7309645,19 59.3840948,16.4774011 59.3840948,10.8149718 L59.3840948,9.12429379 L52.5888325,9.12429379 Z M62.8358714,0.241525424 L62.8358714,18.7584746 L74.4771574,18.7584746 L74.4771574,15.5918079 L66.6260575,15.5918079 L66.6260575,10.7612994 L73.6649746,10.7612994 L73.6649746,7.59463277 L66.6260575,7.59463277 L66.6260575,3.43502825 L74.4771574,3.43502825 L74.4771574,0.241525424 L62.8358714,0.241525424 Z M87.6209814,6.01129944 L91.5736041,18.7584746 L95.2013536,18.7584746 L99.5059222,0.241525424 L95.4179357,0.241525424 L92.9543147,12.5056497 L89.2994924,0.241525424 L85.8883249,0.241525424 L82.3417936,12.4251412 L79.8510998,0.241525424 L75.7901861,0.241525424 L80.0676819,18.7584746 L83.6683587,18.7584746 L87.6209814,6.01129944 Z M103.715736,18.7584746 L99.6548223,18.7584746 L106.152284,0.241525424 L109.780034,0.241525424 L116.277496,18.7584746 L112.243655,18.7584746 L111.106599,15.2429379 L104.852792,15.2429379 L103.715736,18.7584746 Z M107.966159,5.55508475 L105.854484,12.0762712 L110.077834,12.0762712 L107.966159,5.55508475 Z M122.165821,0.241525424 L118.375635,0.241525424 L118.375635,18.7584746 L130.01692,18.7584746 L130.01692,15.5918079 L122.165821,15.5918079 L122.165821,0.241525424 Z M136.1489,0.241525424 L132.358714,0.241525424 L132.358714,18.7584746 L144,18.7584746 L144,15.5918079 L136.1489,15.5918079 L136.1489,0.241525424 Z"></path>
            </g>
        </g>
    </g>
</svg>