<?xml version="1.0" encoding="UTF-8" standalone="no"?>
<svg width="320px" height="180px" viewBox="0 0 320 180" version="1.1" xmlns="http://www.w3.org/2000/svg" xmlns:xlink="http://www.w3.org/1999/xlink">
    <!-- Generator: Sketch 46.2 (44496) - http://www.bohemiancoding.com/sketch -->
    <title>mass-logo</title>
    <desc>Created with Sketch.</desc>
    <defs></defs>
    <g id="Page-1" stroke="none" stroke-width="1" fill="none" fill-rule="evenodd">
        <g id="mass-logo" fill-rule="nonzero" fill="#B0AFB2">
            <g transform="translate(104.000000, 76.000000)" id="Shape">
                <path d="M57.1855542,19.5679612 L64.7173101,19.5679612 C64.856787,21.538835 65.8331258,23.2281553 69.1805729,23.2281553 C71.4122042,23.2281553 72.8069738,22.1019417 72.8069738,20.4126214 C72.8069738,18.723301 71.6911582,18.1601942 68.3437111,17.7378641 C60.5330012,16.7524272 57.882939,14.5 57.882939,8.72815534 C57.882939,3.66019417 62.0672478,0 68.622665,0 C75.3175592,0 79.0834371,2.81553398 79.641345,8.72815534 L72.249066,8.72815534 C71.9701121,6.75728155 70.8542964,5.63106796 68.622665,5.63106796 C66.5305106,5.63106796 65.4146949,6.61650485 65.4146949,8.02427184 C65.4146949,9.57281553 66.2515567,10.276699 69.7384807,10.8398058 C76.8518057,11.684466 80.4782067,13.5145631 80.4782067,19.5679612 C80.4782067,24.776699 76.4333748,28.8592233 69.3200498,28.8592233 C61.369863,29 57.4645081,25.6213592 57.1855542,19.5679612 L57.1855542,19.5679612 Z M81.3150685,19.5679612 C81.5940224,25.6213592 85.4993773,29 93.3100872,29 C100.423412,29 104.468244,24.776699 104.468244,19.7087379 C104.468244,13.6553398 100.841843,11.8252427 93.7285181,10.9805825 C90.241594,10.5582524 89.4047323,9.85436893 89.4047323,8.16504854 C89.4047323,6.75728155 90.5205479,5.77184466 92.6127024,5.77184466 C94.8443337,5.77184466 95.9601494,6.75728155 96.2391034,8.86893204 L103.631382,8.86893204 C103.073474,2.95631068 99.3075965,0.140776699 92.6127024,0.140776699 C85.9178082,0.140776699 81.8729763,3.80097087 81.8729763,8.86893204 C81.8729763,14.5 84.5230386,16.8932039 92.3337484,17.8786408 C95.6811955,18.4417476 96.7970112,18.8640777 96.7970112,20.5533981 C96.7970112,22.2427184 95.5417186,23.368932 93.1706102,23.368932 C89.8231631,23.368932 88.9863014,21.6796117 88.7073474,19.7087379 L81.3150685,19.7087379 L81.3150685,19.5679612 Z M104.049813,24.9174757 C104.049813,27.1699029 105.723537,28.8592233 107.955168,28.8592233 C110.326276,28.8592233 112,27.0291262 112,24.9174757 C112,22.6650485 110.1868,20.9757282 107.955168,20.9757282 C105.723537,20.9757282 104.049813,22.6650485 104.049813,24.9174757 L104.049813,24.9174757 Z M20.3636364,0.422330097 L15.0635118,14.9223301 L9.7633873,0.422330097 L0,0.422330097 L0,28.5776699 L6.83437111,28.5776699 L6.83437111,10.9805825 L13.8082192,28.4368932 L15.2029888,28.4368932 L16.5977584,28.4368932 L23.5716065,10.9805825 L23.5716065,28.4368932 L30.4059776,28.4368932 L30.4059776,0.281553398 L20.3636364,0.281553398 L20.3636364,0.422330097 Z M47.7011208,17.7378641 L44.6326276,7.03883495 L41.5641345,17.7378641 L44.6326276,17.7378641 L47.7011208,17.7378641 Z M58.5803238,28.4368932 L50.7696139,28.4368932 L49.2353674,23.2281553 L44.6326276,23.2281553 L40.0298879,23.2281553 L38.4956413,28.4368932 L30.6849315,28.4368932 L39.4719801,0.281553398 L44.4931507,0.281553398 L49.5143213,0.281553398 L58.5803238,28.4368932 Z"></path>
            </g>
        </g>
    </g>
</svg>