<?xml version="1.0" encoding="UTF-8" standalone="no"?>
<svg width="320px" height="180px" viewBox="0 0 320 180" version="1.1" xmlns="http://www.w3.org/2000/svg" xmlns:xlink="http://www.w3.org/1999/xlink">
    <!-- Generator: Sketch 46.2 (44496) - http://www.bohemiancoding.com/sketch -->
    <title>stanley-saitowitz-logo</title>
    <desc>Created with Sketch.</desc>
    <defs></defs>
    <g id="Page-1" stroke="none" stroke-width="1" fill="none" fill-rule="evenodd">
        <g id="stanley-saitowitz-logo" fill="#B0AFB2">
            <g transform="translate(104.000000, 67.000000)" id="STANLEY-SAITOWITZ-Copy">
                <path d="M22.1761738,3.04229724 C21.3069461,1.43422584 19.7640667,0.499805976 17.9386884,0.499805976 C15.5048506,0.499805976 13.3535118,2.12960807 13.3535118,4.67209934 C13.3535118,7.01901436 15.0050446,7.99689562 16.9173458,8.8661234 L17.9169577,9.30073729 C19.4381063,9.99611952 20.9375243,10.6480404 20.9375243,12.5603415 C20.9375243,14.4074505 19.3294529,15.7547536 17.5692666,15.7547536 C15.8090803,15.7547536 14.5269693,14.3857198 14.2879317,12.7124563 L12.5060147,13.2122623 C13.0275514,15.7547536 14.9833139,17.4497478 17.612728,17.4497478 C20.459449,17.4497478 22.7629026,15.2549476 22.7629026,12.3864959 C22.7629026,9.77881257 20.9592549,8.71400854 18.8296469,7.77958867 L17.7431121,7.30151339 C16.6348467,6.80170741 15.1788902,6.14978657 15.1788902,4.73729142 C15.1788902,3.2378735 16.4392705,2.19480016 17.895227,2.19480016 C19.2859915,2.19480016 20.0682965,2.84672099 20.7202173,3.97671711 L22.1761738,3.04229724 Z M29.781917,2.47729919 L33.7803648,2.47729919 L33.7803648,0.782305006 L24.0015522,0.782305006 L24.0015522,2.47729919 L27.9565386,2.47729919 L27.9565386,17.1672487 L29.781917,17.1672487 L29.781917,2.47729919 Z M45.1020567,12.5168801 L38.104773,12.5168801 L36.1272798,17.1672487 L34.1280559,17.1672487 L41.6903376,0 L49.0570431,17.1672487 L47.0360885,17.1672487 L45.1020567,12.5168801 Z M44.3849437,10.8218859 L41.6468762,4.25921614 L38.8436166,10.8218859 L44.3849437,10.8218859 Z M50.9476135,17.1672487 L52.7729919,17.1672487 L52.7729919,4.54171517 L65.5506403,17.9060924 L65.5506403,0.782305006 L63.7252619,0.782305006 L63.7252619,13.4730307 L50.9476135,0.0869227784 L50.9476135,17.1672487 Z M70.7877377,0.782305006 L68.9623593,0.782305006 L68.9623593,17.1672487 L75.3077222,17.1672487 L75.3077222,15.4722546 L70.7877377,15.4722546 L70.7877377,0.782305006 Z M77.1113698,17.1672487 L85.6080714,17.1672487 L85.6080714,15.4722546 L78.9367482,15.4722546 L78.9367482,9.03996896 L85.4124951,9.03996896 L85.4124951,7.34497478 L78.9367482,7.34497478 L78.9367482,2.47729919 L85.6080714,2.47729919 L85.6080714,0.782305006 L77.1113698,0.782305006 L77.1113698,17.1672487 Z M92.6053551,10.1265037 L92.6053551,17.1672487 L94.4307334,17.1672487 L94.4307334,10.1265037 L99.798215,0.782305006 L97.6903376,0.782305006 L93.5180442,8.08381839 L89.3457509,0.782305006 L87.2378735,0.782305006 L92.6053551,10.1265037 Z M9.6701591,30.4772992 C8.80093132,28.8692278 7.258052,27.9348079 5.43267365,27.9348079 C2.99883586,27.9348079 0.84749709,29.56461 0.84749709,32.1071013 C0.84749709,34.4540163 2.49902988,35.4318976 4.41133101,36.3011253 L5.41094296,36.7357392 C6.93209158,37.4311215 8.43150951,38.0830423 8.43150951,39.9953434 C8.43150951,41.8424525 6.82343811,43.1897555 5.06325184,43.1897555 C3.30306558,43.1897555 2.0209546,41.8207218 1.78191696,40.1474583 L0,40.6472643 C0.521536671,43.1897555 2.47729919,44.8847497 5.10671323,44.8847497 C7.95343423,44.8847497 10.2568879,42.6899496 10.2568879,39.8214979 C10.2568879,37.2138145 8.4532402,36.1490105 6.32363213,35.2145906 L5.2370974,34.7365153 C4.12883198,34.2367094 2.67287544,33.5847885 2.67287544,32.1722934 C2.67287544,30.6728754 3.93325572,29.6298021 5.38921226,29.6298021 C6.77997672,29.6298021 7.56228172,30.2817229 8.21420256,31.4117191 L9.6701591,30.4772992 Z M22.3826154,39.951882 L15.3853318,39.951882 L13.4078386,44.6022507 L11.4086147,44.6022507 L18.9708964,27.4350019 L26.3376019,44.6022507 L24.3166473,44.6022507 L22.3826154,39.951882 Z M21.6655025,38.2568879 L18.927435,31.6942181 L16.1241754,38.2568879 L21.6655025,38.2568879 Z M29.9883586,28.2173069 L28.1629802,28.2173069 L28.1629802,44.6022507 L29.9883586,44.6022507 L29.9883586,28.2173069 Z M37.6592938,29.9123011 L41.6577416,29.9123011 L41.6577416,28.2173069 L31.878929,28.2173069 L31.878929,29.9123011 L35.8339154,29.9123011 L35.8339154,44.6022507 L37.6592938,44.6022507 L37.6592938,29.9123011 Z M51.2409779,27.9348079 C55.9130772,27.9348079 59.7811409,31.7376795 59.7811409,36.4315095 C59.7811409,41.1470702 55.9130772,44.8847497 51.2409779,44.8847497 C46.5688785,44.8847497 42.7008149,41.1470702 42.7008149,36.4315095 C42.7008149,31.7376795 46.5688785,27.9348079 51.2409779,27.9348079 Z M51.2409779,29.6298021 C47.4815677,29.6298021 44.5261932,32.69383 44.5261932,36.4097788 C44.5261932,40.1039969 47.5250291,43.1897555 51.2409779,43.1897555 C54.9569267,43.1897555 57.9557625,40.1039969 57.9557625,36.4097788 C57.9557625,32.69383 55.000388,29.6298021 51.2409779,29.6298021 Z M62.8668995,28.2173069 L60.8894063,28.2173069 L67.169577,45.4497478 L72.4718665,32.2592161 L77.774156,45.4497478 L84.0543267,28.2173069 L82.0768335,28.2173069 L77.774156,40.4951494 L72.4718665,27.3698099 L67.169577,40.4951494 L62.8668995,28.2173069 Z M87.8354676,28.2173069 L86.0100893,28.2173069 L86.0100893,44.6022507 L87.8354676,44.6022507 L87.8354676,28.2173069 Z M95.5064028,29.9123011 L99.5048506,29.9123011 L99.5048506,28.2173069 L89.726038,28.2173069 L89.726038,29.9123011 L93.6810244,29.9123011 L93.6810244,44.6022507 L95.5064028,44.6022507 L95.5064028,29.9123011 Z M103.046954,42.9072565 L112,28.2173069 L101.156383,28.2173069 L101.156383,29.9123011 L108.957703,29.9123011 L100.026387,44.6022507 L111.760962,44.6022507 L111.760962,42.9072565 L103.046954,42.9072565 Z"></path>
            </g>
        </g>
    </g>
</svg>