<?xml version="1.0" encoding="UTF-8" standalone="no"?>
<svg width="320px" height="180px" viewBox="0 0 320 180" version="1.1" xmlns="http://www.w3.org/2000/svg" xmlns:xlink="http://www.w3.org/1999/xlink">
    <!-- Generator: Sketch 46.2 (44496) - http://www.bohemiancoding.com/sketch -->
    <title>zahner-logo</title>
    <desc>Created with Sketch.</desc>
    <defs></defs>
    <g id="Page-1" stroke="none" stroke-width="1" fill="none" fill-rule="evenodd">
        <g id="zahner-logo" fill="#B0AFB2">
            <g transform="translate(88.000000, 81.000000)">
                <path d="M70.2440496,18 C70.2441968,12.1213423 70.2443441,6.24268479 70.2445098,0.364027185 C70.2445098,0.300003447 70.2425584,0.235874923 70.2456512,0.171973433 C70.2526469,0.0272825785 70.2698232,0.0112504474 70.4167145,0.00482362305 C70.4534603,0.00319945318 70.4903166,0.00419491221 70.527136,0.00419491221 C72.785016,0.00417744758 75.0429513,0.00646525756 77.3007945,3.5050612e-06 C77.489752,-0.000537884896 77.6017935,0.0616171849 77.7099691,0.200824284 C79.246114,2.17778862 80.7869719,4.15143476 82.3273694,6.12539526 C83.623212,7.78594331 84.9199751,9.44584518 86.2166093,11.1058344 C86.2418123,11.1381082 86.259725,11.1769486 86.3022331,11.1982374 C86.354351,11.1743115 86.3307681,11.1281536 86.3332902,11.0920027 C86.337322,11.0340565 86.3345237,10.9756563 86.3345237,10.9174656 C86.3345421,7.39025704 86.334763,3.86308344 86.3341924,0.335892368 C86.3341555,-0.0436395173 86.3354626,0.0049633367 86.6837931,0.00473630217 C88.5183413,0.00353127324 90.3528711,0.00412505595 92.187401,0.00422984034 C92.4874612,0.00422984034 92.4877558,0.00450926763 92.4877742,0.294362512 C92.4878294,6.12644311 92.4878294,11.9585237 92.4876085,17.7906392 C92.4876085,17.8604262 92.4846077,17.9302131 92.483006,18 L85.4504884,18 C85.4253959,17.9190534 85.3630054,17.8603738 85.3115686,17.7959484 C84.5892259,16.8914951 83.8652447,15.988247 83.1425891,15.0840209 C81.6712834,13.2431026 80.2004009,11.4018874 78.729629,9.56060241 C77.9997935,8.6468932 77.2708234,7.73260765 76.5403989,6.81935251 C76.506028,6.77637312 76.4805305,6.72097669 76.3976867,6.68926172 L76.3976867,6.93098364 C76.3976867,10.5275949 76.3976867,14.1241712 76.3974473,17.7207825 C76.3974289,17.8138492 76.3944834,17.9069333 76.3929001,18 L70.2440496,18 Z" id="Shape"></path>
                <path d="M126.339902,7.93882555 C127.22203,7.93882555 128.104155,7.93727092 128.986265,7.93976881 C129.252155,7.94051993 129.515206,7.92256306 129.772805,7.85588858 C130.419756,7.68844252 130.889401,7.32499058 131.095343,6.67337283 C131.188019,6.38014134 131.212771,6.07831572 131.185601,5.7750228 C131.117854,5.01901764 130.734411,4.49143854 130.006516,4.22771011 C129.706222,4.11890336 129.393596,4.06744331 129.073084,4.06732103 C127.173582,4.0666922 125.274081,4.06602842 123.374579,4.06548692 C123.33933,4.06548692 123.304045,4.06681447 123.268795,4.06770533 C123.197466,4.06948704 123.160999,4.10552305 123.160012,4.17640727 C123.1595,4.21132534 123.158141,4.24626088 123.158141,4.28117896 C123.158036,5.42821766 123.157806,6.57525636 123.158318,7.72231253 C123.158423,7.93225767 123.164281,7.93662461 123.375955,7.93877315 C123.405367,7.93907011 123.434776,7.93886049 123.464168,7.93886049 C124.422758,7.93886049 125.38133,7.93886049 126.339902,7.93882555 L126.339902,7.93882555 Z M117.081152,18 C117.07854,17.9244694 117.073671,17.8489213 117.073671,17.7733906 C117.073318,11.9465787 117.073371,6.11978421 117.073195,0.292989726 C117.073195,-0.0159278173 117.06455,0.000474420548 117.375217,0.000474420548 C122.184432,0.000491888756 126.993628,-0.00128982422 131.802826,0.00194171372 C132.807233,0.00262295682 133.796008,0.120635222 134.748635,0.457955362 C135.39931,0.688390207 135.986401,1.02226919 136.475646,1.51129693 C137.028774,2.06420431 137.3667,2.73402349 137.549317,3.48443896 C137.686418,4.04766979 137.740298,4.62090965 137.720821,5.19911037 C137.700303,5.80754779 137.605809,6.40386258 137.369134,6.97102366 C136.945237,7.98680952 136.208555,8.6760878 135.160995,9.039662 C135.072446,9.07038781 134.983669,9.10064199 134.895156,9.13152501 C134.890058,9.13330672 134.8863,9.13887895 134.864459,9.15788388 C134.954735,9.21942284 135.053692,9.24744114 135.144763,9.28842054 C135.707913,9.54173816 136.147918,9.93004673 136.46042,10.4593551 C136.691697,10.851035 136.828796,11.2761133 136.918508,11.7181526 C137.004463,12.1416587 137.020147,12.5726935 137.056773,13.0013875 C137.109277,13.6156592 137.156507,14.2303501 137.221025,14.8436261 C137.275823,15.3646024 137.335243,15.8845306 137.442544,16.3981181 C137.556957,16.9456977 137.739769,17.4635648 138.095937,17.9085213 C138.117425,17.9353518 138.129757,17.9693441 138.146341,18 L131.477462,18 C131.421094,17.8470523 131.362644,17.6949778 131.322861,17.536388 C131.173163,16.9398636 131.127204,16.33202 131.120713,15.7201589 C131.116214,15.295692 131.123377,14.8711204 131.083821,14.4475443 C131.042538,14.0054875 130.969163,13.5703828 130.799019,13.157008 C130.573441,12.6089042 130.17733,12.2495747 129.591246,12.106304 C129.362016,12.0502848 129.128993,12.0265986 128.893041,12.0264763 C127.071556,12.0255855 125.25007,12.0242055 123.428566,12.0232272 C123.158459,12.0230876 123.158088,12.0236989 123.15807,12.293314 C123.157982,14.1142243 123.158106,15.9351348 123.157665,17.7560626 C123.157647,17.8373751 123.152813,17.9186876 123.150184,18 L117.081152,18 Z" id="Shape"></path>
                <path d="M45.6635237,18 C45.6619221,17.9185473 45.6589398,17.8370947 45.6589398,17.755642 C45.6587004,11.9459875 45.658774,6.13633301 45.6585899,0.326678504 C45.6585716,-0.029159363 45.6465684,0.000658282294 45.9946958,0.000588410224 C47.9027505,0.000169181215 49.8107685,0.00034386082 51.7188048,0.000448667221 C52.0290635,0.000448667221 52.0295789,0.000745621529 52.0296157,0.303498649 C52.0297815,2.23617811 52.029671,4.1688401 52.0297446,6.10151957 C52.0297446,6.40451714 52.0299471,6.40467436 52.3569218,6.40467436 C55.3079412,6.40472676 58.2589606,6.40472676 61.2099799,6.40467436 C61.5329413,6.40467436 61.5331069,6.40451714 61.5331069,6.09912646 C61.5331806,4.16064768 61.5330884,2.22213395 61.5332358,0.283637687 C61.5332542,0.000798025297 61.533696,0.000466135522 61.8229308,0.000448667221 C63.7554888,0.00034386082 65.6880837,0.000326392519 67.6206418,0.000466135522 C67.9012977,0.000483603824 67.9019052,0.000920299999 67.9019052,0.274170103 C67.902034,6.07800781 67.9019972,11.8818455 67.9020157,17.6856657 C67.9020157,17.7904556 67.9022917,17.8952278 67.902439,18 L61.5326835,18 C61.5328491,15.5908496 61.5330517,13.1816992 61.5330884,10.7725488 C61.5330884,10.489255 61.5327387,10.4890454 61.2254808,10.4890279 C58.2632684,10.4889755 55.3010374,10.4889755 52.338825,10.4890279 C52.0299655,10.4890454 52.029763,10.4892899 52.0297446,10.7900691 C52.0296893,13.1235836 52.029671,15.4570806 52.0298366,17.7905777 C52.0298366,17.8603969 52.032101,17.9301984 52.0332792,18 L45.6635237,18 Z" id="Shape"></path>
                <path d="M94.8372987,18 C94.8346317,17.9244498 94.8296062,17.8488997 94.8296062,17.773332 C94.8292251,11.9456105 94.8292433,6.11790645 94.8292976,0.290184932 C94.8292976,0.000369250877 94.8295153,5.4822524e-05 95.1240141,5.4822524e-05 C101.170836,-1.50499387e-05 107.217622,-1.50499387e-05 113.264445,3.7354976e-05 C113.558399,3.7354976e-05 113.558925,0.000299378414 113.558998,0.274830343 C113.559198,1.39264092 113.559198,2.51043402 113.558998,3.6282446 C113.558944,3.92017394 113.558454,3.92068051 113.258857,3.92068051 C109.310284,3.9208028 105.361711,3.92076786 101.413138,3.92075038 C101.055338,3.92075038 101.087088,3.90422543 101.086816,4.23058467 C101.086145,5.10387473 101.08658,5.97714732 101.086634,6.85045485 C101.086634,6.89702519 101.084838,6.94371782 101.087741,6.99014841 C101.094889,7.10465277 101.108152,7.11759675 101.227915,7.12360583 C101.28824,7.1266453 101.34882,7.12461897 101.409291,7.12461897 C105.091796,7.12463645 108.774318,7.1244443 112.456841,7.12498581 C112.758416,7.12503821 112.768032,7.08825008 112.767723,7.4170025 C112.766743,8.48240832 112.767505,9.54783162 112.767269,10.6132375 C112.767215,10.8804842 112.766671,10.8809034 112.484328,10.8809034 C108.78368,10.8810082 105.083051,10.8809383 101.382385,10.8810432 C101.067076,10.8810432 101.086707,10.8609023 101.086652,11.1645179 C101.086489,12.0436423 101.086598,12.9227493 101.086598,13.8018563 C101.086598,13.8367928 101.085999,13.8717292 101.086906,13.9066483 C101.091206,14.0699938 101.100986,14.0791996 101.277808,14.0826234 C101.338261,14.0837938 101.398732,14.0829553 101.459203,14.0829553 C105.37755,14.0829553 109.295878,14.0828155 113.214207,14.0831824 C113.550271,14.0832173 113.559905,14.0482983 113.559651,14.4196033 C113.558744,15.6130514 113.560341,16.8065344 113.560976,18 L94.8372987,18 Z" id="Fill-7"></path>
                <path d="M32.805529,4.59391497 C32.754267,4.62510918 32.748172,4.65473144 32.7380555,4.68164649 C32.5697382,5.12938638 32.4015997,5.57719614 32.2335147,6.02500588 C31.7292779,7.36845261 31.2250768,8.7119168 30.72084,10.055381 C30.5814604,10.4267597 30.4405615,10.7975795 30.3035412,11.1697616 C30.2575341,11.2947132 30.2727983,11.3121966 30.4053144,11.3196545 C30.4290508,11.3209819 30.4529301,11.3202309 30.4767558,11.3202309 C32.0248207,11.3202484 33.5729213,11.3202659 35.1210039,11.3201959 C35.1567157,11.3201959 35.1924275,11.3194275 35.2281392,11.3184668 C35.2945045,11.3166853 35.3088572,11.2801465 35.2916805,11.2247795 C35.2795979,11.1858303 35.2663712,11.1471782 35.2520722,11.1089626 C35.1048996,10.7156117 34.9574589,10.3223482 34.8099825,9.92910209 C34.2508196,8.43803307 33.6917996,6.94692913 33.132315,5.4559649 C33.0260376,5.17277183 32.9179014,4.89022498 32.805529,4.59391497 L32.805529,4.59391497 Z M21.0731707,18 C21.9404952,16.0460831 22.8078733,14.0921836 23.6751621,12.1382491 C24.3623548,10.590049 25.0489934,9.04160426 25.7366866,7.49363114 C26.6591338,5.41717301 27.582296,3.34102926 28.5052973,1.26481564 C28.669021,0.896545869 28.8378566,0.530354548 28.9950206,0.159429953 C29.046926,0.0369411738 29.1238011,0.000227726131 29.253511,0.000367453899 C31.636102,0.0031794734 34.018693,0.00342399614 36.4012839,6.68648668e-07 C36.5422543,-0.000208923572 36.6133204,0.0488354925 36.6683537,0.17466027 C37.5766628,2.25075162 38.4889935,4.32514878 39.4012348,6.39958086 C40.5721095,9.06212676 41.7436276,11.7244107 42.9150743,14.3867295 C43.411393,15.5147511 43.9084267,16.6424583 44.4042271,17.7707069 C44.4369362,17.8451468 44.4776169,17.9174384 44.4878049,18 L37.8745112,18 C37.8596224,17.9438993 37.8495953,17.8860171 37.8291119,17.8319425 C37.5024152,16.9703643 37.1747712,16.1091177 36.8463944,15.2481333 C36.7810299,15.0767397 36.7792604,15.0762507 36.5900309,15.0761458 C35.6971469,15.0757092 34.8042629,15.0759363 33.9113967,15.0759363 C32.2744457,15.0759363 30.6374947,15.0758315 29.0005437,15.0760935 C28.7954779,15.0761285 28.7944769,15.0767049 28.7219453,15.2678698 C28.3764631,16.1784751 28.0315531,17.0892724 27.6864643,18 L21.0731707,18 Z" id="Shape"></path>
                <path d="M0,14.5064698 C0.0526573469,14.4893515 0.0918187843,14.4535254 0.131320756,14.4176817 C0.690800586,13.9100718 1.24965311,13.4017981 1.81031585,12.8954283 C2.5505656,12.226854 3.2924284,11.5600439 4.03325167,10.8920984 C4.38394817,10.575899 4.73367683,10.2587039 5.08410449,9.94222498 C6.03898041,9.07984705 6.99441195,8.21804555 7.94880396,7.35514359 C8.52670848,6.83263375 9.10228303,6.30767842 9.68036679,5.78536072 C10.2453131,5.27493849 10.812446,4.76683946 11.3775715,4.25660938 C11.4323975,4.20710605 11.4993573,4.1659348 11.5348804,4.08471022 C11.4522381,4.05325097 11.3747935,4.06605477 11.2998939,4.0660373 C7.91887279,4.06535606 4.53786964,4.0654434 1.1568665,4.06539099 C1.09116131,4.06539099 1.02522313,4.0679238 0.959804711,4.06345209 C0.839398974,4.05522483 0.820705436,4.03504969 0.813554218,3.9127412 C0.810507332,3.86051292 0.812263772,3.80798769 0.812263772,3.75560221 C0.812210003,2.72513306 0.812335464,1.6946814 0.812120389,0.664229728 C0.812084543,0.512959869 0.811152555,0.361986962 0.797584954,0.210717103 C0.782063762,0.0374380058 0.817353863,0.005192722 0.992370538,0.000983017315 C1.04013495,-0.000152380003 1.08795312,0.000616196555 1.13573545,0.000616196555 C7.27649975,0.000616196555 13.4172641,0.000511391435 19.5580284,0.000878212194 C19.911951,0.000895679147 19.8993333,-0.0337776076 19.8991898,0.330859608 C19.8987597,1.32055925 19.8953902,2.31029382 19.902416,3.29994106 C19.9036886,3.47758707 19.8522678,3.60050693 19.711215,3.72003807 C19.3418787,4.03302344 18.9897305,4.36529309 18.630431,4.6895451 C17.6927431,5.53576546 16.7545354,6.38142685 15.8172777,7.22806643 C15.2566328,7.73450603 14.6981388,8.2431815 14.1373506,8.7494115 C13.2304541,9.5680679 12.322339,10.3853967 11.4150123,11.203599 C11.0599785,11.5237635 10.7058588,11.8449238 10.35104,12.1653504 C9.72902734,12.7270402 9.10674582,13.288468 8.48484068,13.8502801 C8.46781398,13.8656515 8.45361907,13.8840275 8.43877895,13.9002899 C8.46223996,13.9591035 8.51061375,13.9368672 8.54715845,13.9385265 C8.62463895,13.9420725 8.70242415,13.9397667 8.78006595,13.9397667 C12.3223568,13.9397842 15.8646478,13.9397319 19.4069387,13.9398542 C19.7240119,13.9398542 19.7201944,13.9161156 19.7200151,14.245049 C19.7193699,15.421041 19.7198538,16.5970681 19.719567,17.7730603 C19.7195491,17.8487126 19.7166815,17.9243476 19.7151401,18 L0,18 L0,14.5064698 Z" id="Shape"></path>
                <path d="M142.973464,2.83005178 C142.973464,2.70101775 142.977815,2.57179835 142.971849,2.44300027 C142.968252,2.36500009 142.950562,2.28733699 142.935962,2.21009522 C142.802836,1.50666094 142.317945,1.03351935 141.588475,0.897305537 C141.275826,0.838923373 140.961386,0.832266053 140.647735,0.888726864 C140.027368,1.00045185 139.565711,1.31231777 139.354212,1.89780796 C139.134729,2.50539369 139.136274,3.12449069 139.354739,3.73246407 C139.528069,4.21487534 139.885012,4.53029745 140.395085,4.67915174 C140.800358,4.79739922 141.211035,4.80724194 141.624767,4.72280354 C142.303555,4.58424703 142.724323,4.18617302 142.904778,3.5474917 C142.971113,3.31264844 142.990188,3.07252989 142.973464,2.83005178 L142.973464,2.83005178 Z M144,3.33708671 C143.929365,3.68753137 143.801575,4.01687486 143.598904,4.31697671 C143.086531,5.07550663 142.358886,5.50245148 141.42564,5.60435061 C140.628467,5.69140137 139.903491,5.5037998 139.271821,5.03054023 C138.624006,4.54521322 138.250515,3.90295886 138.164525,3.11363673 C138.067076,2.21929749 138.36323,1.45107654 139.006851,0.812243533 C139.427303,0.394939155 139.952013,0.141118319 140.547638,0.0282641132 C140.587368,0.0207135331 140.626379,0.00950564093 140.665724,0 L141.543164,0 C141.576647,0.00906743762 141.609692,0.0201236441 141.643684,0.0268820873 C142.501733,0.197815084 143.165816,0.63517569 143.626368,1.35423361 C143.812385,1.64464442 143.931788,1.95880248 144,2.29214036 L144,3.33708671 Z" id="Shape"></path>
                <path d="M141.23148,2.17173209 C141.23148,2.24500605 141.231706,2.31827999 141.23141,2.39155395 C141.231096,2.47899634 141.264484,2.53040468 141.344149,2.53261536 C141.47709,2.53635342 141.610815,2.54589953 141.742306,2.51937139 C141.899092,2.48773858 141.976997,2.38287202 141.985893,2.20784654 C141.99547,2.01905458 141.927979,1.91201752 141.765803,1.85466046 C141.692923,1.82887591 141.618682,1.82178164 141.543098,1.82232426 C141.202105,1.824756 141.231724,1.7862098 141.23148,2.17173209 M140.487882,2.81622535 C140.487882,2.36126766 140.487811,1.90628986 140.487986,1.45131206 C140.488004,1.39779354 140.48919,1.34429511 140.490079,1.29077659 C140.491859,1.18643255 140.53484,1.12867355 140.628636,1.12799024 C140.67509,1.12766868 140.721595,1.12493549 140.767996,1.12600063 C141.121741,1.13409975 141.476096,1.10471782 141.829247,1.15763344 C141.997563,1.18285527 142.16075,1.22576253 142.316856,1.30072465 C142.566967,1.42084489 142.713007,1.63779287 142.764257,1.94439392 C142.809507,2.21492072 142.798029,2.47696655 142.693016,2.72807956 C142.622596,2.89649308 142.517042,3.0236875 142.365838,3.10025738 C142.245423,3.16123192 142.242789,3.16716056 142.307244,3.30502652 C142.455902,3.62304272 142.608745,3.9384664 142.760001,4.25487482 C142.774009,4.28415627 142.790406,4.31205101 142.80321,4.34197556 C142.850587,4.45293155 142.837121,4.49198016 142.731619,4.49618046 C142.546069,4.50359628 142.360117,4.49802939 142.174323,4.49746667 C142.083021,4.49718531 142.026049,4.44201883 141.982997,4.35166236 C141.829299,4.02918461 141.672305,3.70875676 141.515798,3.38808776 C141.481957,3.31879303 141.453087,3.24391131 141.369339,3.23323976 C141.277148,3.22150306 141.236207,3.25032227 141.232805,3.35842447 C141.227329,3.53214362 141.230537,3.70624464 141.230015,3.88022505 C141.229544,4.0340883 141.227834,4.18797164 141.228864,4.34183488 C141.229509,4.44129533 141.186161,4.4931659 141.103233,4.49493444 C140.94076,4.49841123 140.778217,4.49839114 140.615728,4.49634124 C140.517536,4.49509522 140.489224,4.42083651 140.489155,4.32163731 C140.488963,4.10083069 140.488108,3.88004418 140.487934,3.65927776 C140.48769,3.37824019 140.487863,3.09724282 140.487882,2.81622535" id="Shape"></path>
            </g>
        </g>
    </g>
</svg>