<svg width="16" height="16" viewBox="0 0 16 16" xmlns="http://www.w3.org/2000/svg">
  <path d="M5.40863462 15.0032787c.15737704.104918.31475409.2622951.36721311.4196721.03497268.1049181.05245902.2972678.05245902.5770492h3.30491803c.41967213-.5595628.66448087-.9092896.73442623-1.0491803.10491803-.2098361.62950819-.4196722.78688529-.7344263.157377-.3147541 1.1540983-2.0983606 1.2590163-2.1508196.1049181-.052459.7344263-.9967213.8918033-1.2590164.1573771-.2622951.4578468-.5765017-.4196721-1.25901642-.4721312-.36721311-.4721312-.15737705-1.6786885-1.15409836-.2517856-.19877807-.5880903-.34087631-.73442626-.52459016-.23985558-.3011207-.20983606-.6295082-.10491803-.89180328.06994535-.17486339.08743169-.47213115.05245902-.89180328.27978137.13989071.43715847.03497268.47213117-.3147541.104918-.3147541.2622951-.26229508.3672131-.52459016.104918-.26229508.2098361-1.15409836-.2098361-1.31147541.052459-.3147541.2198375-.67422519.2098361-.9442623-.0100014-.2700371-.2622951-.31475409-.2098361-.52459016.052459-.20983607.052459-.36721311-.157377-.52459016C10.5496182 1.83606557 10.1299461.10491803 7.03486412 0 5.51355265 0 3.67748707 1.46885246 3.67748707 2.2557377c0 .78688525-.10491803 1.36393443.10491804 1.52131148.05245901 0 .15737705.36721312.05245901.41967213-.10491803.05245902-.26229508.9442623 0 1.15409836.26229509.20983607.41967214.41967213.41967214.6295082 0 .20983606.31475409.41967213.62950819.3147541 0 .52459016.47213115 1.10163934.41967213 1.52131147-.05245901.41967213.26229508 1.04918033.10491804 1.20655738-.15737705.15737705-1.88852459 1.04918028-1.99344263 1.41639348-.15737705.5245901-.47213114 1.6262295.6295082 3.462295.68196721.7344263 1.20655738.9967214 1.36393443 1.1016394z" fill="#FFF" fill-rule="evenodd"/>
</svg>
