<svg width="84" height="41" viewBox="0 0 84 41" fill="none" xmlns="http://www.w3.org/2000/svg">
<path d="M9.42182 41C5.43566 41 3.36493 39.3308 3.36493 35.2621V24.4644C3.36493 23.2125 2.79548 22.6908 1.65658 22.6908H0V18.3092H1.65658C2.79548 18.3092 3.36493 17.7354 3.36493 16.4835V5.73791C3.36493 1.66921 5.43566 0 9.42182 0H14.1845V4.69466H10.4572C9.00767 4.69466 8.23115 5.42494 8.23115 6.93766V17.1616C8.23115 19.1438 7.29932 20.1349 5.84981 20.3957V20.6043C7.29932 20.813 8.23115 21.8562 8.23115 23.8384V34.0623C8.23115 35.5751 9.00767 36.3053 10.4572 36.3053H14.1845V41H9.42182Z" fill="#ffffff"/>
<path d="M26.4851 11.3715H32.1796V17.1094H26.4851V11.3715ZM26.4851 30.7761H32.1796V36.514H26.4851V30.7761Z" fill="#ffffff"/>
<path d="M39.1339 30.7761H44.8284V36.514H39.1339V30.7761Z" fill="#ffffff"/>
<path d="M51.7828 11.3715H57.4773V17.1094H51.7828V11.3715ZM51.7828 30.7761H57.4773V36.514H51.7828V30.7761Z" fill="#ffffff"/>
<path d="M69.8155 41V36.3053H73.5428C74.9923 36.3053 75.7688 35.5751 75.7688 34.0623V23.8384C75.7688 21.8562 76.7524 20.813 78.1502 20.6043V20.3957C76.7524 20.1349 75.7688 19.1438 75.7688 17.1616V6.93766C75.7688 5.42494 74.9923 4.69466 73.5428 4.69466H69.8155V0H74.5782C78.6161 0 80.6351 1.66921 80.6351 5.73791V16.4835C80.6351 17.7354 81.2045 18.3092 82.3434 18.3092H84V22.6908H82.3434C81.2045 22.6908 80.6351 23.2125 80.6351 24.4644V35.2621C80.6351 39.3308 78.6161 41 74.5782 41H69.8155Z" fill="#ffffff"/>
</svg>
