<svg width="158" height="24" viewBox="0 0 158 24" fill="none" xmlns="http://www.w3.org/2000/svg">
<path d="M29.4654 23.15V20.875H31.2654C31.9654 20.875 32.3404 20.525 32.3404 19.8V13.65C32.3404 12.7 32.8154 12.225 33.4904 12.1V12C32.8154 11.9 32.3404 11.4 32.3404 10.45V4.29998C32.3404 3.57498 31.9654 3.22498 31.2654 3.22498H29.4654V0.974976H31.7654C33.7154 0.974976 34.6904 1.79998 34.6904 3.72498V10.15C34.6904 10.75 34.9654 11 35.5154 11H36.3154V13.1H35.5154C34.9654 13.1 34.6904 13.375 34.6904 13.975V20.375C34.6904 22.325 33.7154 23.15 31.7654 23.15H29.4654Z" fill="#292B30"/>
<path d="M21.757 8.95001H24.507V11.7H21.757V8.95001ZM21.757 18.25H24.507V21H21.757V18.25Z" fill="#292B30"/>
<path d="M16.8986 18.25H19.6486V21H16.8986V18.25Z" fill="#292B30"/>
<path d="M12.0402 8.95001H14.7902V11.7H12.0402V8.95001ZM12.0402 18.25H14.7902V21H12.0402V18.25Z" fill="#292B30"/>
<path d="M4.8 23.15C2.875 23.15 1.875 22.35 1.875 20.4V13.975C1.875 13.375 1.6 13.125 1.05 13.125H0.25V11.025H1.05C1.6 11.025 1.875 10.75 1.875 10.15V3.75C1.875 1.8 2.875 1 4.8 1H7.1V3.25H5.3C4.6 3.25 4.225 3.6 4.225 4.325V10.475C4.225 11.425 3.775 11.9 3.075 12.025V12.125C3.775 12.225 4.225 12.725 4.225 13.675V19.825C4.225 20.55 4.6 20.9 5.3 20.9H7.1V23.15H4.8Z" fill="#292B30"/>
<path d="M157.805 3.20001V5.60001H154.157V20H151.469V5.60001H147.797V3.20001H157.805Z" fill="#292B30"/>
<path d="M138.875 20.192C135.635 20.192 133.763 18.296 133.595 15.008H136.139C136.307 16.808 137.147 17.864 138.875 17.864C140.267 17.864 141.347 17.168 141.347 15.488C141.347 14.024 139.979 13.208 137.867 12.272C135.539 11.24 133.979 9.728 133.979 7.4C133.979 4.592 136.067 3.008 138.899 3.008C142.115 3.008 143.747 4.904 143.771 7.496H141.203C141.203 6.2 140.435 5.264 138.851 5.264C137.483 5.264 136.523 6.08 136.523 7.328C136.523 8.504 137.147 9.32 139.427 10.328C142.499 11.672 143.915 12.896 143.915 15.488C143.915 18.224 141.923 20.192 138.875 20.192Z" fill="#292B30"/>
<path d="M129.137 5.40801H127.937V17.792H129.137V20H124.049V17.792H125.249V5.40801H124.049V3.20001H129.137V5.40801Z" fill="#292B30"/>
<path d="M120.042 3.20001V5.60001H116.394V20H113.706V5.60001H110.034V3.20001H120.042Z" fill="#292B30"/>
<path d="M100.635 20.192C97.6109 20.192 94.8989 17.792 94.8989 11.6C94.8989 5.40799 97.6109 3.008 100.635 3.008C103.659 3.008 106.371 5.40799 106.371 11.6C106.371 17.792 103.659 20.192 100.635 20.192ZM100.635 17.792C102.339 17.792 103.683 16.448 103.683 11.6C103.683 6.75199 102.339 5.408 100.635 5.408C98.9309 5.408 97.5869 6.75199 97.5869 11.6C97.5869 16.448 98.9309 17.792 100.635 17.792Z" fill="#292B30"/>
<path d="M80.0704 20V3.20001H85.1344C88.0624 3.20001 89.6944 4.68801 89.6944 7.32801C89.6944 8.91201 88.7584 10.088 87.8704 10.544V10.64C89.5504 11.336 90.3184 12.824 90.3184 14.888C90.3184 18.176 87.9184 20 85.2544 20H80.0704ZM82.7584 9.53601H85.1344C86.4064 9.53601 87.0064 8.86401 87.0064 7.54401C87.0064 6.22401 86.4064 5.55201 85.1344 5.55201H82.7584V9.53601ZM82.7584 17.648H85.0144C86.6704 17.648 87.6304 16.736 87.6304 14.72C87.6304 12.704 86.6704 11.792 85.0144 11.792H82.7584V17.648Z" fill="#292B30"/>
<path d="M68.9052 20.192C65.8812 20.192 63.1692 17.792 63.1692 11.6C63.1692 5.40799 65.8812 3.008 68.9052 3.008C71.9292 3.008 74.6412 5.40799 74.6412 11.6C74.6412 17.792 71.9292 20.192 68.9052 20.192ZM68.9052 17.792C70.6092 17.792 71.9532 16.448 71.9532 11.6C71.9532 6.75199 70.6092 5.408 68.9052 5.408C67.2012 5.408 65.8572 6.75199 65.8572 11.6C65.8572 16.448 67.2012 17.792 68.9052 17.792Z" fill="#292B30"/>
<path d="M58.624 7.71201C58.624 9.77601 57.688 11.264 56.008 11.888L58.336 20H55.552L53.344 12.224H50.56V20H47.872V3.20001H53.992C56.896 3.20001 58.624 4.90401 58.624 7.71201ZM50.56 5.55201V9.87201H53.848C55.24 9.87201 55.936 9.03201 55.936 7.71201C55.936 6.39201 55.24 5.55201 53.848 5.55201H50.56Z" fill="#292B30"/>
</svg>
